<mxfile host="Electron" agent="Mozilla/5.0 (Windows NT 10.0; Win64; x64) AppleWebKit/537.36 (KHTML, like Gecko) draw.io/26.2.2 Chrome/134.0.6998.178 Electron/35.1.2 Safari/537.36" version="26.2.2">
  <diagram name="Overview Page" id="jW8YMbaWXAAI7ImZlEEr">
    <mxGraphModel dx="13277" dy="7027" grid="1" gridSize="10" guides="1" tooltips="1" connect="1" arrows="1" fold="1" page="1" pageScale="1" pageWidth="850" pageHeight="1100" background="light-dark(#FFFFFF,#FFFEFE)" math="0" shadow="0">
      <root>
        <mxCell id="0" />
        <mxCell id="1" style="locked=1;" parent="0" />
        <mxCell id="83" value="&lt;font style=&quot;font-size: 19px; color: rgb(255, 255, 255);&quot;&gt;&lt;b style=&quot;&quot;&gt;Read/Write&lt;/b&gt;&lt;/font&gt;" style="shape=doubleArrow;whiteSpace=wrap;html=1;fillColor=#1ba1e2;strokeColor=#006EAF;fontColor=#ffffff;rounded=1;" parent="1" vertex="1">
          <mxGeometry x="720" y="-80" width="280" height="120" as="geometry" />
        </mxCell>
        <mxCell id="34" value="Internet Layer" style="locked=1;" parent="0" />
        <mxCell id="h3mf51rb0Ij0eNAKnFn7-270" value="" style="group;movable=0;resizable=0;rotatable=0;deletable=0;editable=0;locked=1;connectable=0;" vertex="1" connectable="0" parent="34">
          <mxGeometry x="-2990" y="282" width="530" height="670.22" as="geometry" />
        </mxCell>
        <mxCell id="35" value="&lt;h1&gt;&lt;font style=&quot;color: light-dark(rgb(255, 255, 255), rgb(255, 255, 255));&quot;&gt;Internet&lt;/font&gt;&lt;/h1&gt;" style="ellipse;shape=cloud;whiteSpace=wrap;html=1;fillColor=#1ba1e2;strokeWidth=6;fontFamily=Helvetica;fontSize=12;movable=1;resizable=1;rotatable=1;deletable=1;editable=1;locked=0;connectable=1;perimeterSpacing=0;strokeColor=#006EAF;rounded=1;align=center;verticalAlign=middle;fontColor=#ffffff;container=0;" parent="h3mf51rb0Ij0eNAKnFn7-270" vertex="1">
          <mxGeometry y="166.53632190116127" width="530" height="307.8584931136917" as="geometry" />
        </mxCell>
        <mxCell id="0_KBqYn_ndAyOyzbdBZQ-231" value="" style="verticalAlign=middle;endArrow=block;curved=0;rounded=0;fillColor=#1ba1e2;strokeColor=#006EAF;strokeWidth=9;flowAnimation=1;fontColor=#FFFFFF;labelBackgroundColor=#3333FF;spacingRight=0;spacingBottom=0;spacingLeft=21;fontFamily=Times New Roman;labelBorderColor=none;labelPosition=center;verticalLabelPosition=middle;align=center;textShadow=0;html=1;dashed=1;startArrow=none;startFill=0;dashPattern=1 1;shadow=0;fontSize=18;movable=1;resizable=1;rotatable=1;deletable=1;editable=1;locked=0;connectable=1;" parent="h3mf51rb0Ij0eNAKnFn7-270" source="0_KBqYn_ndAyOyzbdBZQ-233" edge="1">
          <mxGeometry x="-0.3333" y="10" width="80" relative="1" as="geometry">
            <mxPoint x="110.7735849056603" y="147.77777777777777" as="sourcePoint" />
            <mxPoint x="129.0566037735848" as="targetPoint" />
            <mxPoint as="offset" />
          </mxGeometry>
        </mxCell>
        <mxCell id="0_KBqYn_ndAyOyzbdBZQ-232" value="" style="verticalAlign=middle;endArrow=none;curved=0;rounded=0;fillColor=#1ba1e2;strokeColor=#006EAF;strokeWidth=10;flowAnimation=1;fontColor=#FFFFFF;labelBackgroundColor=#3333FF;spacingRight=0;spacingBottom=0;spacingLeft=21;fontFamily=Times New Roman;labelBorderColor=none;labelPosition=center;verticalLabelPosition=middle;align=center;textShadow=0;html=1;dashed=1;startArrow=oval;startFill=0;dashPattern=1 1;shadow=0;endSize=6;movable=1;resizable=1;rotatable=1;deletable=1;editable=1;locked=0;connectable=1;" parent="h3mf51rb0Ij0eNAKnFn7-270" target="0_KBqYn_ndAyOyzbdBZQ-233" edge="1">
          <mxGeometry x="-0.3333" y="10" width="80" relative="1" as="geometry">
            <mxPoint x="127.98113207547158" y="222.22222222222223" as="sourcePoint" />
            <mxPoint x="129.0566037735848" y="74.44444444444446" as="targetPoint" />
            <mxPoint as="offset" />
          </mxGeometry>
        </mxCell>
        <mxCell id="0_KBqYn_ndAyOyzbdBZQ-233" value="&lt;h4&gt;&lt;span style=&quot;font-size: 17px; font-weight: 400;&quot;&gt;&lt;font style=&quot;color: light-dark(rgb(255, 255, 255), rgb(255, 255, 255));&quot;&gt;Request&lt;/font&gt;&lt;/span&gt;&lt;/h4&gt;" style="rounded=1;whiteSpace=wrap;html=1;align=center;spacingBottom=4;labelBackgroundColor=none;fillColor=#1ba1e2;fontColor=#ffffff;strokeColor=#006EAF;rotation=0;movable=1;resizable=1;rotatable=1;deletable=1;editable=1;locked=0;connectable=1;container=0;" parent="h3mf51rb0Ij0eNAKnFn7-270" vertex="1">
          <mxGeometry x="80.00301886792431" y="98.00111111111113" width="100" height="37.332" as="geometry" />
        </mxCell>
        <mxCell id="0_KBqYn_ndAyOyzbdBZQ-236" value="" style="verticalAlign=middle;endArrow=block;curved=0;rounded=0;fillColor=#1ba1e2;strokeColor=#006EAF;strokeWidth=9;flowAnimation=1;fontColor=#FFFFFF;labelBackgroundColor=#3333FF;spacingRight=0;spacingBottom=0;spacingLeft=21;fontFamily=Times New Roman;labelBorderColor=none;labelPosition=center;verticalLabelPosition=middle;align=center;textShadow=0;html=1;dashed=1;startArrow=none;startFill=0;dashPattern=1 1;shadow=0;fontSize=18;movable=1;resizable=1;rotatable=1;deletable=1;editable=1;locked=0;connectable=1;" parent="h3mf51rb0Ij0eNAKnFn7-270" source="0_KBqYn_ndAyOyzbdBZQ-238" edge="1">
          <mxGeometry x="-0.3333" y="10" width="80" relative="1" as="geometry">
            <mxPoint x="458.86792452830196" y="80.96296296296299" as="sourcePoint" />
            <mxPoint x="440.9433962264152" y="229.11111111111114" as="targetPoint" />
            <mxPoint as="offset" />
          </mxGeometry>
        </mxCell>
        <mxCell id="0_KBqYn_ndAyOyzbdBZQ-237" value="" style="verticalAlign=middle;endArrow=none;curved=0;rounded=0;fillColor=#1ba1e2;strokeColor=#006EAF;strokeWidth=10;flowAnimation=1;fontColor=#FFFFFF;labelBackgroundColor=#3333FF;spacingRight=0;spacingBottom=0;spacingLeft=21;fontFamily=Times New Roman;labelBorderColor=none;labelPosition=center;verticalLabelPosition=middle;align=center;textShadow=0;html=1;dashed=1;startArrow=oval;startFill=0;dashPattern=1 1;shadow=0;endSize=6;movable=1;resizable=1;rotatable=1;deletable=1;editable=1;locked=0;connectable=1;" parent="h3mf51rb0Ij0eNAKnFn7-270" target="0_KBqYn_ndAyOyzbdBZQ-238" edge="1">
          <mxGeometry x="-0.3333" y="10" width="80" relative="1" as="geometry">
            <mxPoint x="442.0188679245284" y="6.888888888888914" as="sourcePoint" />
            <mxPoint x="440.9433962264152" y="155.03703703703707" as="targetPoint" />
            <mxPoint as="offset" />
          </mxGeometry>
        </mxCell>
        <mxCell id="0_KBqYn_ndAyOyzbdBZQ-238" value="&lt;h4 style=&quot;color: rgb(255, 255, 255); font-family: &amp;quot;Times New Roman&amp;quot;; font-size: 18px;&quot;&gt;&lt;span style=&quot;font-family: Helvetica; font-size: 17px; font-weight: 400;&quot;&gt;Response&lt;/span&gt;&lt;/h4&gt;" style="rounded=1;whiteSpace=wrap;html=1;align=center;spacingBottom=4;labelBackgroundColor=none;fillColor=#1ba1e2;fontColor=#ffffff;strokeColor=#006EAF;movable=1;resizable=1;rotatable=1;deletable=1;editable=1;locked=0;connectable=1;container=0;" parent="h3mf51rb0Ij0eNAKnFn7-270" vertex="1">
          <mxGeometry x="389.9998113207548" y="88.00185185185188" width="100" height="37.332" as="geometry" />
        </mxCell>
        <mxCell id="0_KBqYn_ndAyOyzbdBZQ-247" value="" style="verticalAlign=middle;endArrow=block;curved=0;rounded=0;fillColor=#1ba1e2;strokeColor=#006EAF;strokeWidth=9;flowAnimation=1;fontColor=#FFFFFF;labelBackgroundColor=#3333FF;spacingRight=0;spacingBottom=0;spacingLeft=21;fontFamily=Times New Roman;labelBorderColor=none;labelPosition=center;verticalLabelPosition=middle;align=center;textShadow=0;html=1;dashed=1;startArrow=none;startFill=0;dashPattern=1 1;shadow=0;fontSize=18;movable=1;resizable=1;rotatable=1;deletable=1;editable=1;locked=0;connectable=1;" parent="h3mf51rb0Ij0eNAKnFn7-270" source="0_KBqYn_ndAyOyzbdBZQ-249" edge="1">
          <mxGeometry x="-0.3333" y="10" width="80" relative="1" as="geometry">
            <mxPoint x="478.6999999999998" y="515.4066666666666" as="sourcePoint" />
            <mxPoint x="460.7750000000001" y="670.22" as="targetPoint" />
            <mxPoint as="offset" />
          </mxGeometry>
        </mxCell>
        <mxCell id="0_KBqYn_ndAyOyzbdBZQ-248" value="" style="verticalAlign=middle;endArrow=none;curved=0;rounded=0;fillColor=#1ba1e2;strokeColor=#006EAF;strokeWidth=10;flowAnimation=1;fontColor=#FFFFFF;labelBackgroundColor=#3333FF;spacingRight=0;spacingBottom=0;spacingLeft=21;fontFamily=Times New Roman;labelBorderColor=none;labelPosition=center;verticalLabelPosition=middle;align=center;textShadow=0;html=1;dashed=1;startArrow=oval;startFill=0;dashPattern=1 1;shadow=0;endSize=6;movable=1;resizable=1;rotatable=1;deletable=1;editable=1;locked=0;connectable=1;" parent="h3mf51rb0Ij0eNAKnFn7-270" target="0_KBqYn_ndAyOyzbdBZQ-249" edge="1">
          <mxGeometry x="-0.3333" y="10" width="80" relative="1" as="geometry">
            <mxPoint x="460" y="438" as="sourcePoint" />
            <mxPoint x="460.7750000000001" y="592.8133333333333" as="targetPoint" />
            <mxPoint as="offset" />
          </mxGeometry>
        </mxCell>
        <mxCell id="0_KBqYn_ndAyOyzbdBZQ-249" value="&lt;h4&gt;&lt;span style=&quot;font-family: Helvetica; font-size: 17px; font-weight: 400;&quot;&gt;&lt;font style=&quot;color: light-dark(rgb(255, 255, 255), rgb(255, 255, 255));&quot;&gt;Response&lt;/font&gt;&lt;/span&gt;&lt;/h4&gt;" style="rounded=1;whiteSpace=wrap;html=1;align=center;spacingBottom=0;labelBackgroundColor=none;fillColor=#1ba1e2;fontColor=default;strokeColor=#006EAF;verticalAlign=middle;fontFamily=Times New Roman;fontSize=18;fontStyle=0;movable=1;resizable=1;rotatable=1;deletable=1;editable=1;locked=0;connectable=1;container=0;" parent="h3mf51rb0Ij0eNAKnFn7-270" vertex="1">
          <mxGeometry x="410.00007894736837" y="511.15239626666664" width="100.00263157894736" height="39.011566679999994" as="geometry" />
        </mxCell>
        <mxCell id="0_KBqYn_ndAyOyzbdBZQ-241" value="" style="verticalAlign=middle;endArrow=block;curved=0;rounded=0;fillColor=#1ba1e2;strokeColor=#006EAF;strokeWidth=9;flowAnimation=1;fontColor=#FFFFFF;labelBackgroundColor=#3333FF;spacingRight=0;spacingBottom=0;spacingLeft=21;fontFamily=Times New Roman;labelBorderColor=none;labelPosition=center;verticalLabelPosition=middle;align=center;textShadow=0;html=1;dashed=1;startArrow=none;startFill=0;dashPattern=1 1;shadow=0;fontSize=18;movable=1;resizable=1;rotatable=1;deletable=1;editable=1;locked=0;connectable=1;" parent="h3mf51rb0Ij0eNAKnFn7-270" source="0_KBqYn_ndAyOyzbdBZQ-243" edge="1">
          <mxGeometry x="-0.3333" y="10" width="80" relative="1" as="geometry">
            <mxPoint x="113" y="587.3777777777777" as="sourcePoint" />
            <mxPoint x="130" y="427.7777777777778" as="targetPoint" />
            <mxPoint as="offset" />
          </mxGeometry>
        </mxCell>
        <mxCell id="0_KBqYn_ndAyOyzbdBZQ-242" value="" style="verticalAlign=middle;endArrow=none;curved=0;rounded=0;fillColor=#1ba1e2;strokeColor=#006EAF;strokeWidth=10;flowAnimation=1;fontColor=#FFFFFF;labelBackgroundColor=#3333FF;spacingRight=0;spacingBottom=0;spacingLeft=21;fontFamily=Times New Roman;labelBorderColor=none;labelPosition=center;verticalLabelPosition=middle;align=center;textShadow=0;html=1;dashed=1;startArrow=oval;startFill=0;dashPattern=1 1;shadow=0;endSize=6;movable=1;resizable=1;rotatable=1;deletable=1;editable=1;locked=0;connectable=1;" parent="h3mf51rb0Ij0eNAKnFn7-270" target="0_KBqYn_ndAyOyzbdBZQ-243" edge="1">
          <mxGeometry x="-0.3333" y="10" width="80" relative="1" as="geometry">
            <mxPoint x="129" y="667.7777777777778" as="sourcePoint" />
            <mxPoint x="130" y="508.1777777777778" as="targetPoint" />
            <mxPoint as="offset" />
          </mxGeometry>
        </mxCell>
        <mxCell id="0_KBqYn_ndAyOyzbdBZQ-243" value="&lt;font style=&quot;font-size: 17px; color: light-dark(rgb(255, 255, 255), rgb(255, 255, 255));&quot;&gt;Request&lt;/font&gt;" style="rounded=1;whiteSpace=wrap;html=1;align=center;spacingBottom=0;fillColor=#1ba1e2;strokeColor=#006EAF;rotation=0;flipH=1;flipV=1;direction=west;movable=1;resizable=1;rotatable=1;deletable=1;editable=1;locked=0;connectable=1;container=0;" parent="h3mf51rb0Ij0eNAKnFn7-270" vertex="1">
          <mxGeometry x="80" y="523.7777777777778" width="100" height="37.332" as="geometry" />
        </mxCell>
        <mxCell id="h3mf51rb0Ij0eNAKnFn7-271" value="" style="group;movable=0;resizable=0;rotatable=0;deletable=0;editable=0;locked=1;connectable=0;" vertex="1" connectable="0" parent="34">
          <mxGeometry x="-590" y="219.77777777777777" width="530" height="752.4422222222222" as="geometry" />
        </mxCell>
        <mxCell id="h3mf51rb0Ij0eNAKnFn7-253" value="&lt;h1&gt;&lt;font style=&quot;color: light-dark(rgb(255, 255, 255), rgb(255, 255, 255));&quot;&gt;Internet&lt;/font&gt;&lt;/h1&gt;" style="ellipse;shape=cloud;whiteSpace=wrap;html=1;fillColor=#1ba1e2;strokeWidth=6;fontFamily=Helvetica;fontSize=12;movable=1;resizable=1;rotatable=1;deletable=1;editable=1;locked=0;connectable=1;perimeterSpacing=0;strokeColor=#006EAF;rounded=1;align=center;verticalAlign=middle;fontColor=#ffffff;container=0;" vertex="1" parent="h3mf51rb0Ij0eNAKnFn7-271">
          <mxGeometry y="216.7585441233835" width="530" height="307.8584931136917" as="geometry" />
        </mxCell>
        <mxCell id="h3mf51rb0Ij0eNAKnFn7-263" value="" style="verticalAlign=middle;endArrow=block;curved=0;rounded=0;fillColor=#1ba1e2;strokeColor=#006EAF;strokeWidth=9;flowAnimation=1;fontColor=#FFFFFF;labelBackgroundColor=#3333FF;spacingRight=0;spacingBottom=0;spacingLeft=21;fontFamily=Times New Roman;labelBorderColor=none;labelPosition=center;verticalLabelPosition=middle;align=center;textShadow=0;html=1;dashed=1;startArrow=none;startFill=0;dashPattern=1 1;shadow=0;fontSize=18;movable=1;resizable=1;rotatable=1;deletable=1;editable=1;locked=0;connectable=1;" edge="1" parent="h3mf51rb0Ij0eNAKnFn7-271" source="h3mf51rb0Ij0eNAKnFn7-265">
          <mxGeometry x="-0.3333" y="10" width="80" relative="1" as="geometry">
            <mxPoint x="311.7" y="597.6288888888889" as="sourcePoint" />
            <mxPoint x="293.775" y="752.4422222222222" as="targetPoint" />
            <mxPoint as="offset" />
          </mxGeometry>
        </mxCell>
        <mxCell id="h3mf51rb0Ij0eNAKnFn7-264" value="" style="verticalAlign=middle;endArrow=none;curved=0;rounded=0;fillColor=#1ba1e2;strokeColor=#006EAF;strokeWidth=10;flowAnimation=1;fontColor=#FFFFFF;labelBackgroundColor=#3333FF;spacingRight=0;spacingBottom=0;spacingLeft=21;fontFamily=Times New Roman;labelBorderColor=none;labelPosition=center;verticalLabelPosition=middle;align=center;textShadow=0;html=1;dashed=1;startArrow=block;startFill=1;dashPattern=1 1;shadow=0;endSize=6;movable=1;resizable=1;rotatable=1;deletable=1;editable=1;locked=0;connectable=1;" edge="1" parent="h3mf51rb0Ij0eNAKnFn7-271" target="h3mf51rb0Ij0eNAKnFn7-265">
          <mxGeometry x="-0.3333" y="10" width="80" relative="1" as="geometry">
            <mxPoint x="293" y="520.2222222222222" as="sourcePoint" />
            <mxPoint x="293.775" y="675.0355555555554" as="targetPoint" />
            <mxPoint as="offset" />
          </mxGeometry>
        </mxCell>
        <mxCell id="h3mf51rb0Ij0eNAKnFn7-265" value="&lt;h4&gt;&lt;span style=&quot;font-family: Helvetica; font-size: 17px; font-weight: 400;&quot;&gt;&lt;font style=&quot;color: light-dark(rgb(255, 255, 255), rgb(255, 255, 255));&quot;&gt;Events&lt;/font&gt;&lt;/span&gt;&lt;/h4&gt;" style="rounded=1;whiteSpace=wrap;html=1;align=center;spacingBottom=0;labelBackgroundColor=none;fillColor=#1ba1e2;fontColor=default;strokeColor=#006EAF;verticalAlign=middle;fontFamily=Times New Roman;fontSize=18;fontStyle=0;movable=1;resizable=1;rotatable=1;deletable=1;editable=1;locked=0;connectable=1;container=0;" vertex="1" parent="h3mf51rb0Ij0eNAKnFn7-271">
          <mxGeometry x="243.00007894736842" y="610.2246184888888" width="100.00263157894736" height="39.011566679999994" as="geometry" />
        </mxCell>
        <mxCell id="h3mf51rb0Ij0eNAKnFn7-267" value="" style="verticalAlign=middle;endArrow=block;curved=0;rounded=0;fillColor=#1ba1e2;strokeColor=#006EAF;strokeWidth=9;flowAnimation=1;fontColor=#FFFFFF;labelBackgroundColor=#3333FF;spacingRight=0;spacingBottom=0;spacingLeft=21;fontFamily=Times New Roman;labelBorderColor=none;labelPosition=center;verticalLabelPosition=middle;align=center;textShadow=0;html=1;dashed=1;startArrow=none;startFill=0;dashPattern=1 1;shadow=0;fontSize=18;movable=1;resizable=1;rotatable=1;deletable=1;editable=1;locked=0;connectable=1;" edge="1" parent="h3mf51rb0Ij0eNAKnFn7-271" source="h3mf51rb0Ij0eNAKnFn7-269">
          <mxGeometry x="-0.3333" y="10" width="80" relative="1" as="geometry">
            <mxPoint x="273" y="159.59999999999997" as="sourcePoint" />
            <mxPoint x="290" as="targetPoint" />
            <mxPoint as="offset" />
          </mxGeometry>
        </mxCell>
        <mxCell id="h3mf51rb0Ij0eNAKnFn7-268" value="" style="verticalAlign=middle;endArrow=none;curved=0;rounded=0;fillColor=#1ba1e2;strokeColor=#006EAF;strokeWidth=10;flowAnimation=1;fontColor=#FFFFFF;labelBackgroundColor=#3333FF;spacingRight=0;spacingBottom=0;spacingLeft=21;fontFamily=Times New Roman;labelBorderColor=none;labelPosition=center;verticalLabelPosition=middle;align=center;textShadow=0;html=1;dashed=1;startArrow=blockThin;startFill=1;dashPattern=1 1;shadow=0;endSize=6;movable=1;resizable=1;rotatable=1;deletable=1;editable=1;locked=0;connectable=1;" edge="1" parent="h3mf51rb0Ij0eNAKnFn7-271" target="h3mf51rb0Ij0eNAKnFn7-269">
          <mxGeometry x="-0.3333" y="10" width="80" relative="1" as="geometry">
            <mxPoint x="289" y="240" as="sourcePoint" />
            <mxPoint x="290" y="80.40000000000003" as="targetPoint" />
            <mxPoint as="offset" />
          </mxGeometry>
        </mxCell>
        <mxCell id="h3mf51rb0Ij0eNAKnFn7-269" value="&lt;font style=&quot;font-size: 17px; color: light-dark(rgb(255, 255, 255), rgb(255, 255, 255));&quot;&gt;Events&lt;/font&gt;" style="rounded=1;whiteSpace=wrap;html=1;align=center;spacingBottom=0;fillColor=#1ba1e2;strokeColor=#006EAF;rotation=0;flipH=1;flipV=1;direction=west;movable=1;resizable=1;rotatable=1;deletable=1;editable=1;locked=0;connectable=1;container=0;" vertex="1" parent="h3mf51rb0Ij0eNAKnFn7-271">
          <mxGeometry x="240" y="96" width="100" height="37.332" as="geometry" />
        </mxCell>
        <mxCell id="44" value="Backend" style="locked=1;" parent="0" />
        <mxCell id="dl0MnxyBd_Y3A5cLGqDN-287" value="" style="group;movable=1;resizable=1;rotatable=1;deletable=1;editable=1;locked=0;connectable=1;" parent="44" vertex="1" connectable="0">
          <mxGeometry x="-3405" y="-1041" width="4122" height="1248" as="geometry" />
        </mxCell>
        <mxCell id="45" value="" style="rounded=1;whiteSpace=wrap;html=1;fillStyle=solid;fillColor=#b1ddf0;fontFamily=Times New Roman;strokeColor=#10739e;shadow=0;movable=0;resizable=0;rotatable=0;deletable=0;editable=0;locked=1;connectable=0;" parent="dl0MnxyBd_Y3A5cLGqDN-287" vertex="1">
          <mxGeometry width="4130" height="1251" as="geometry" />
        </mxCell>
        <mxCell id="46" value="&lt;h1&gt;&lt;font style=&quot;color: light-dark(rgb(255, 255, 255), rgb(255, 255, 255));&quot;&gt;Backend - NodeJS&lt;/font&gt;&lt;/h1&gt;" style="rounded=1;whiteSpace=wrap;html=1;fontFamily=Helvetica;strokeColor=#001DBC;align=center;verticalAlign=middle;fontSize=12;fontColor=#ffffff;fillColor=#0050ef;movable=1;resizable=1;rotatable=1;deletable=1;editable=1;locked=0;connectable=1;" parent="dl0MnxyBd_Y3A5cLGqDN-287" vertex="1">
          <mxGeometry x="1840" y="61" width="480" height="60" as="geometry" />
        </mxCell>
        <mxCell id="dl0MnxyBd_Y3A5cLGqDN-284" value="" style="group" parent="dl0MnxyBd_Y3A5cLGqDN-287" vertex="1" connectable="0">
          <mxGeometry x="1600" y="210" width="538.28" height="804.02" as="geometry" />
        </mxCell>
        <mxCell id="hUGIM9ePqzT6UZDsEGnz-115" value="" style="rounded=1;whiteSpace=wrap;html=1;fillColor=#bac8d3;strokeColor=#23445d;movable=1;resizable=1;rotatable=1;deletable=1;editable=1;locked=0;connectable=1;" parent="dl0MnxyBd_Y3A5cLGqDN-284" vertex="1">
          <mxGeometry width="538.28" height="804.02" as="geometry" />
        </mxCell>
        <mxCell id="hUGIM9ePqzT6UZDsEGnz-116" value="&lt;h1&gt;Mongoose&lt;/h1&gt;" style="rounded=1;whiteSpace=wrap;html=1;fontFamily=Helvetica;strokeColor=#006EAF;align=center;verticalAlign=middle;fontSize=12;fontColor=#ffffff;fillColor=#1ba1e2;" parent="dl0MnxyBd_Y3A5cLGqDN-284" vertex="1">
          <mxGeometry x="138.33999999999992" y="30" width="241.59" height="66.76" as="geometry" />
        </mxCell>
        <mxCell id="hUGIM9ePqzT6UZDsEGnz-118" value="&lt;h1&gt;userSchema&lt;/h1&gt;" style="rounded=1;whiteSpace=wrap;html=1;fontFamily=Helvetica;strokeColor=#006EAF;align=center;verticalAlign=middle;fontSize=12;fontColor=#ffffff;fillColor=#1ba1e2;" parent="dl0MnxyBd_Y3A5cLGqDN-284" vertex="1">
          <mxGeometry x="137.03204999488503" y="150.00265994618644" width="242.90158117647061" height="61.37714818266541" as="geometry" />
        </mxCell>
        <mxCell id="hUGIM9ePqzT6UZDsEGnz-102" value="" style="group;movable=1;resizable=1;rotatable=1;deletable=1;editable=1;locked=0;connectable=1;" parent="dl0MnxyBd_Y3A5cLGqDN-287" vertex="1" connectable="0">
          <mxGeometry x="130" y="220" width="1378.28" height="784.02" as="geometry" />
        </mxCell>
        <mxCell id="hUGIM9ePqzT6UZDsEGnz-85" value="&amp;nbsp; &amp;nbsp; &amp;nbsp;&amp;nbsp;" style="rounded=1;whiteSpace=wrap;html=1;fillColor=#bac8d3;strokeColor=#23445d;movable=1;resizable=1;rotatable=1;deletable=1;editable=1;locked=0;connectable=1;" parent="hUGIM9ePqzT6UZDsEGnz-102" vertex="1">
          <mxGeometry width="1378.28" height="784.02" as="geometry" />
        </mxCell>
        <mxCell id="hUGIM9ePqzT6UZDsEGnz-86" value="&lt;h1&gt;ExpressJS&lt;/h1&gt;" style="rounded=1;whiteSpace=wrap;html=1;fontFamily=Helvetica;strokeColor=#006EAF;align=center;verticalAlign=middle;fontSize=12;fontColor=#ffffff;fillColor=#1ba1e2;" parent="hUGIM9ePqzT6UZDsEGnz-102" vertex="1">
          <mxGeometry x="572.46" y="11.63" width="227.54" height="58.37" as="geometry" />
        </mxCell>
        <mxCell id="hUGIM9ePqzT6UZDsEGnz-111" style="edgeStyle=orthogonalEdgeStyle;rounded=0;orthogonalLoop=1;jettySize=auto;html=1;exitX=1;exitY=0.5;exitDx=0;exitDy=0;entryX=0;entryY=0.5;entryDx=0;entryDy=0;strokeColor=light-dark(#FFFFFF,#FFFFFF);strokeWidth=4;align=center;verticalAlign=middle;fontFamily=Helvetica;fontSize=11;fontColor=default;labelBackgroundColor=default;startArrow=oval;startFill=1;endArrow=classic;" parent="hUGIM9ePqzT6UZDsEGnz-102" source="hUGIM9ePqzT6UZDsEGnz-96" target="hUGIM9ePqzT6UZDsEGnz-107" edge="1">
          <mxGeometry relative="1" as="geometry" />
        </mxCell>
        <mxCell id="hUGIM9ePqzT6UZDsEGnz-112" style="edgeStyle=orthogonalEdgeStyle;rounded=0;orthogonalLoop=1;jettySize=auto;html=1;exitX=1;exitY=0.5;exitDx=0;exitDy=0;entryX=0;entryY=0.5;entryDx=0;entryDy=0;strokeColor=light-dark(#FFFFFF,#FFFFFF);strokeWidth=4;align=center;verticalAlign=middle;fontFamily=Helvetica;fontSize=11;fontColor=default;labelBackgroundColor=default;startArrow=oval;startFill=1;endArrow=classic;" parent="hUGIM9ePqzT6UZDsEGnz-102" source="hUGIM9ePqzT6UZDsEGnz-96" target="hUGIM9ePqzT6UZDsEGnz-109" edge="1">
          <mxGeometry relative="1" as="geometry" />
        </mxCell>
        <mxCell id="hUGIM9ePqzT6UZDsEGnz-113" style="edgeStyle=orthogonalEdgeStyle;rounded=0;orthogonalLoop=1;jettySize=auto;html=1;exitX=1;exitY=0.5;exitDx=0;exitDy=0;entryX=0;entryY=0.5;entryDx=0;entryDy=0;strokeColor=light-dark(#FFFFFF,#FFFFFF);strokeWidth=4;align=center;verticalAlign=middle;fontFamily=Helvetica;fontSize=11;fontColor=default;labelBackgroundColor=default;startArrow=oval;startFill=1;endArrow=classic;" parent="hUGIM9ePqzT6UZDsEGnz-102" source="hUGIM9ePqzT6UZDsEGnz-96" target="hUGIM9ePqzT6UZDsEGnz-110" edge="1">
          <mxGeometry relative="1" as="geometry" />
        </mxCell>
        <mxCell id="hUGIM9ePqzT6UZDsEGnz-114" style="edgeStyle=orthogonalEdgeStyle;rounded=0;orthogonalLoop=1;jettySize=auto;html=1;exitX=1;exitY=0.5;exitDx=0;exitDy=0;entryX=0;entryY=0.5;entryDx=0;entryDy=0;strokeColor=light-dark(#FFFFFF,#FFFFFF);strokeWidth=4;align=center;verticalAlign=middle;fontFamily=Helvetica;fontSize=11;fontColor=default;labelBackgroundColor=default;startArrow=oval;startFill=1;endArrow=classic;" parent="hUGIM9ePqzT6UZDsEGnz-102" source="hUGIM9ePqzT6UZDsEGnz-96" target="hUGIM9ePqzT6UZDsEGnz-106" edge="1">
          <mxGeometry relative="1" as="geometry" />
        </mxCell>
        <mxCell id="hUGIM9ePqzT6UZDsEGnz-96" value="&lt;h1&gt;/auth&lt;/h1&gt;" style="rounded=1;whiteSpace=wrap;html=1;fontFamily=Helvetica;strokeColor=#006EAF;align=center;verticalAlign=middle;fontSize=12;fontColor=#ffffff;fillColor=#1ba1e2;" parent="hUGIM9ePqzT6UZDsEGnz-102" vertex="1">
          <mxGeometry x="408.8993683682865" y="221.00574622673832" width="242.90158117647061" height="61.37714818266541" as="geometry" />
        </mxCell>
        <mxCell id="hUGIM9ePqzT6UZDsEGnz-103" style="edgeStyle=orthogonalEdgeStyle;rounded=0;orthogonalLoop=1;jettySize=auto;html=1;exitX=1;exitY=0.5;exitDx=0;exitDy=0;entryX=0;entryY=0.5;entryDx=0;entryDy=0;startArrow=oval;startFill=1;strokeWidth=4;strokeColor=light-dark(#FFFFFF,#FFFFFF);" parent="hUGIM9ePqzT6UZDsEGnz-102" source="hUGIM9ePqzT6UZDsEGnz-91" target="hUGIM9ePqzT6UZDsEGnz-96" edge="1">
          <mxGeometry relative="1" as="geometry" />
        </mxCell>
        <mxCell id="hUGIM9ePqzT6UZDsEGnz-106" value="&lt;h1&gt;/refresh&lt;/h1&gt;" style="rounded=1;whiteSpace=wrap;html=1;fontFamily=Helvetica;strokeColor=#006EAF;align=center;verticalAlign=middle;fontSize=12;fontColor=#ffffff;fillColor=#1ba1e2;" parent="hUGIM9ePqzT6UZDsEGnz-102" vertex="1">
          <mxGeometry x="746.2452071611253" y="325.69486696930517" width="242.90158117647061" height="61.37714818266541" as="geometry" />
        </mxCell>
        <mxCell id="hUGIM9ePqzT6UZDsEGnz-110" value="&lt;h1&gt;/signup&lt;/h1&gt;" style="rounded=1;whiteSpace=wrap;html=1;fontFamily=Helvetica;strokeColor=#006EAF;align=center;verticalAlign=middle;fontSize=12;fontColor=#ffffff;fillColor=#1ba1e2;" parent="hUGIM9ePqzT6UZDsEGnz-102" vertex="1">
          <mxGeometry x="746.2452071611253" y="255.90310976159694" width="242.90158117647061" height="61.37714818266541" as="geometry" />
        </mxCell>
        <mxCell id="hUGIM9ePqzT6UZDsEGnz-109" value="&lt;h1&gt;/logout&lt;/h1&gt;" style="rounded=1;whiteSpace=wrap;html=1;fontFamily=Helvetica;strokeColor=#006EAF;align=center;verticalAlign=middle;fontSize=12;fontColor=#ffffff;fillColor=#1ba1e2;" parent="hUGIM9ePqzT6UZDsEGnz-102" vertex="1">
          <mxGeometry x="746.2452071611253" y="186.11135255388868" width="242.90158117647061" height="61.37714818266541" as="geometry" />
        </mxCell>
        <mxCell id="hUGIM9ePqzT6UZDsEGnz-107" value="&lt;h1&gt;/login&lt;/h1&gt;" style="rounded=1;whiteSpace=wrap;html=1;fontFamily=Helvetica;strokeColor=#006EAF;align=center;verticalAlign=middle;fontSize=12;fontColor=#ffffff;fillColor=#1ba1e2;" parent="hUGIM9ePqzT6UZDsEGnz-102" vertex="1">
          <mxGeometry x="746.2452071611253" y="116.31959534618044" width="242.90158117647061" height="61.37714818266541" as="geometry" />
        </mxCell>
        <mxCell id="hUGIM9ePqzT6UZDsEGnz-189" style="edgeStyle=orthogonalEdgeStyle;rounded=0;orthogonalLoop=1;jettySize=auto;html=1;exitX=1;exitY=0.5;exitDx=0;exitDy=0;entryX=0;entryY=0.5;entryDx=0;entryDy=0;strokeColor=light-dark(#FFFFFF,#FFFFFF);strokeWidth=4;align=center;verticalAlign=middle;fontFamily=Helvetica;fontSize=11;fontColor=default;labelBackgroundColor=default;startArrow=oval;startFill=1;endArrow=classic;" parent="hUGIM9ePqzT6UZDsEGnz-102" source="hUGIM9ePqzT6UZDsEGnz-170" target="hUGIM9ePqzT6UZDsEGnz-188" edge="1">
          <mxGeometry relative="1" as="geometry" />
        </mxCell>
        <mxCell id="hUGIM9ePqzT6UZDsEGnz-170" value="&lt;h1&gt;/&lt;/h1&gt;" style="rounded=1;whiteSpace=wrap;html=1;fontFamily=Helvetica;strokeColor=#006EAF;align=center;verticalAlign=middle;fontSize=12;fontColor=#ffffff;fillColor=#1ba1e2;" parent="hUGIM9ePqzT6UZDsEGnz-102" vertex="1">
          <mxGeometry x="61.332049994885054" y="590.0026599461864" width="242.90158117647061" height="61.37714818266541" as="geometry" />
        </mxCell>
        <mxCell id="hUGIM9ePqzT6UZDsEGnz-188" value="&lt;h1&gt;index.html&lt;/h1&gt;" style="rounded=1;whiteSpace=wrap;html=1;fontFamily=Helvetica;strokeColor=#006EAF;align=center;verticalAlign=middle;fontSize=12;fontColor=#ffffff;fillColor=#1ba1e2;" parent="hUGIM9ePqzT6UZDsEGnz-102" vertex="1">
          <mxGeometry x="407" y="590" width="242.90158117647061" height="61.37714818266541" as="geometry" />
        </mxCell>
        <mxCell id="hUGIM9ePqzT6UZDsEGnz-91" value="&lt;h1&gt;/api/v1&lt;/h1&gt;" style="rounded=1;whiteSpace=wrap;html=1;fontFamily=Helvetica;strokeColor=#006EAF;align=center;verticalAlign=middle;fontSize=12;fontColor=#ffffff;fillColor=#1ba1e2;movable=1;resizable=1;rotatable=1;deletable=1;editable=1;locked=0;connectable=1;" parent="hUGIM9ePqzT6UZDsEGnz-102" vertex="1">
          <mxGeometry x="61.332049994884954" y="314.0626599461864" width="242.90158117647061" height="61.37714818266541" as="geometry" />
        </mxCell>
        <mxCell id="dl0MnxyBd_Y3A5cLGqDN-266" value="" style="group;movable=1;resizable=1;rotatable=1;deletable=1;editable=1;locked=0;connectable=1;" parent="dl0MnxyBd_Y3A5cLGqDN-287" vertex="1" connectable="0">
          <mxGeometry x="2285" y="220" width="1728.28" height="790" as="geometry" />
        </mxCell>
        <mxCell id="dl0MnxyBd_Y3A5cLGqDN-267" value="&amp;nbsp; &amp;nbsp; &amp;nbsp;&amp;nbsp;" style="rounded=1;whiteSpace=wrap;html=1;fillColor=#bac8d3;strokeColor=#23445d;movable=1;resizable=1;rotatable=1;deletable=1;editable=1;locked=0;connectable=1;" parent="dl0MnxyBd_Y3A5cLGqDN-266" vertex="1">
          <mxGeometry width="1728.28" height="790" as="geometry" />
        </mxCell>
        <mxCell id="dl0MnxyBd_Y3A5cLGqDN-268" value="&lt;h1&gt;Socket.io&lt;/h1&gt;" style="rounded=1;whiteSpace=wrap;html=1;fontFamily=Helvetica;strokeColor=#006EAF;align=center;verticalAlign=middle;fontSize=12;fontColor=#ffffff;fillColor=#1ba1e2;" parent="dl0MnxyBd_Y3A5cLGqDN-266" vertex="1">
          <mxGeometry x="717.83031662652" y="11.71870615545522" width="285.3214377339873" height="58.815208795693984" as="geometry" />
        </mxCell>
        <mxCell id="dl0MnxyBd_Y3A5cLGqDN-282" value="&lt;h1&gt;/socket/v1&lt;/h1&gt;" style="rounded=1;whiteSpace=wrap;html=1;fontFamily=Helvetica;strokeColor=#006EAF;align=center;verticalAlign=middle;fontSize=12;fontColor=#ffffff;fillColor=#1ba1e2;movable=1;resizable=1;rotatable=1;deletable=1;editable=1;locked=0;connectable=1;" parent="dl0MnxyBd_Y3A5cLGqDN-266" vertex="1">
          <mxGeometry x="349.99669193861894" y="60.998127799657226" width="304.5839341176471" height="61.84529356943149" as="geometry" />
        </mxCell>
        <mxCell id="dl0MnxyBd_Y3A5cLGqDN-354" value="" style="group" parent="dl0MnxyBd_Y3A5cLGqDN-266" vertex="1" connectable="0">
          <mxGeometry x="187.28999999999996" y="141" width="630" height="500" as="geometry" />
        </mxCell>
        <mxCell id="dl0MnxyBd_Y3A5cLGqDN-312" value="" style="rounded=1;whiteSpace=wrap;html=1;fillColor=#b1ddf0;strokeColor=#10739e;" parent="dl0MnxyBd_Y3A5cLGqDN-354" vertex="1">
          <mxGeometry width="630" height="500" as="geometry" />
        </mxCell>
        <mxCell id="dl0MnxyBd_Y3A5cLGqDN-346" value="&lt;h1&gt;Events&lt;/h1&gt;" style="rounded=1;whiteSpace=wrap;html=1;fontFamily=Helvetica;strokeColor=#001DBC;align=center;verticalAlign=middle;fontSize=12;fontColor=#ffffff;fillColor=#0050ef;movable=1;resizable=1;rotatable=1;deletable=1;editable=1;locked=0;connectable=1;" parent="dl0MnxyBd_Y3A5cLGqDN-354" vertex="1">
          <mxGeometry x="179.99669193861894" y="19.998127799657254" width="304.5839341176471" height="61.84529356943149" as="geometry" />
        </mxCell>
        <mxCell id="dl0MnxyBd_Y3A5cLGqDN-347" value="&lt;font face=&quot;Georgia&quot; style=&quot;font-size: 27px; color: rgb(0, 127, 255);&quot;&gt;paired-sender-server&lt;/font&gt;" style="rounded=0;whiteSpace=wrap;html=1;fillColor=#b0e3e6;strokeColor=#0e8088;" parent="dl0MnxyBd_Y3A5cLGqDN-354" vertex="1">
          <mxGeometry x="50" y="100" width="310" height="60" as="geometry" />
        </mxCell>
        <mxCell id="dl0MnxyBd_Y3A5cLGqDN-350" value="&lt;font face=&quot;Georgia&quot; style=&quot;font-size: 27px; color: rgb(0, 127, 255);&quot;&gt;paired-sender-server&lt;/font&gt;" style="rounded=0;whiteSpace=wrap;html=1;fillColor=#b0e3e6;strokeColor=#0e8088;" parent="dl0MnxyBd_Y3A5cLGqDN-354" vertex="1">
          <mxGeometry x="50" y="360" width="310" height="60" as="geometry" />
        </mxCell>
        <mxCell id="dl0MnxyBd_Y3A5cLGqDN-351" value="&lt;font face=&quot;Georgia&quot; style=&quot;font-size: 27px; color: rgb(0, 127, 255);&quot;&gt;pair-request-server&lt;/font&gt;" style="rounded=0;whiteSpace=wrap;html=1;fillColor=#b0e3e6;strokeColor=#0e8088;" parent="dl0MnxyBd_Y3A5cLGqDN-354" vertex="1">
          <mxGeometry x="50" y="187" width="310" height="60" as="geometry" />
        </mxCell>
        <mxCell id="dl0MnxyBd_Y3A5cLGqDN-352" value="&lt;font face=&quot;Georgia&quot; style=&quot;font-size: 27px; color: rgb(0, 127, 255);&quot;&gt;paired-sender-server&lt;/font&gt;" style="rounded=0;whiteSpace=wrap;html=1;fillColor=#b0e3e6;strokeColor=#0e8088;" parent="dl0MnxyBd_Y3A5cLGqDN-354" vertex="1">
          <mxGeometry x="50" y="273" width="310" height="60" as="geometry" />
        </mxCell>
        <mxCell id="47" value="Frontend" style="locked=1;" parent="0" />
        <mxCell id="81" value="" style="rounded=1;whiteSpace=wrap;html=1;fillStyle=solid;fillColor=#b1ddf0;fontFamily=Times New Roman;strokeColor=#10739e;glass=0;shadow=0;movable=1;resizable=1;rotatable=1;deletable=1;editable=1;locked=0;connectable=1;" parent="47" vertex="1">
          <mxGeometry x="-3470" y="980" width="4180" height="1540" as="geometry" />
        </mxCell>
        <mxCell id="82" value="&lt;h1&gt;&lt;font style=&quot;color: light-dark(rgb(255, 255, 255), rgb(255, 255, 255));&quot;&gt;Frontend - DOM&lt;/font&gt;&lt;/h1&gt;" style="rounded=1;whiteSpace=wrap;html=1;fontFamily=Helvetica;strokeColor=#001DBC;align=center;verticalAlign=middle;fontSize=12;fontColor=#ffffff;fillColor=#0050ef;" parent="47" vertex="1">
          <mxGeometry x="-1490.0042528735632" y="1030" width="306.32183908045977" height="60" as="geometry" />
        </mxCell>
        <mxCell id="dl0MnxyBd_Y3A5cLGqDN-313" value="" style="group;movable=1;resizable=1;rotatable=1;deletable=1;editable=1;locked=0;connectable=1;strokeColor=light-dark(#FFFFFF,#FFFFFF);" parent="47" vertex="1" connectable="0">
          <mxGeometry x="-3340" y="1190" width="1330" height="700" as="geometry" />
        </mxCell>
        <mxCell id="dl0MnxyBd_Y3A5cLGqDN-314" value="" style="rounded=1;whiteSpace=wrap;html=1;fillColor=#bac8d3;strokeColor=#23445d;movable=1;resizable=1;rotatable=1;deletable=1;editable=1;locked=0;connectable=1;" parent="dl0MnxyBd_Y3A5cLGqDN-313" vertex="1">
          <mxGeometry width="1330" height="700" as="geometry" />
        </mxCell>
        <mxCell id="dl0MnxyBd_Y3A5cLGqDN-315" value="" style="group;movable=1;resizable=1;rotatable=1;deletable=1;editable=1;locked=0;connectable=1;" parent="dl0MnxyBd_Y3A5cLGqDN-313" vertex="1" connectable="0">
          <mxGeometry x="80.00382352941165" y="50" width="969.9961764705884" height="560" as="geometry" />
        </mxCell>
        <mxCell id="dl0MnxyBd_Y3A5cLGqDN-316" value="&lt;h1&gt;&lt;font style=&quot;color: light-dark(rgb(255, 255, 255), rgb(255, 255, 255));&quot;&gt;React Router&lt;/font&gt;&lt;/h1&gt;" style="rounded=1;whiteSpace=wrap;html=1;fontFamily=Helvetica;strokeColor=#006EAF;align=center;verticalAlign=middle;fontSize=12;fontColor=#ffffff;fillColor=#1ba1e2;movable=1;resizable=1;rotatable=1;deletable=1;editable=1;locked=0;connectable=1;" parent="dl0MnxyBd_Y3A5cLGqDN-315" vertex="1">
          <mxGeometry x="409.99617647058824" width="422.35" height="60.36" as="geometry" />
        </mxCell>
        <mxCell id="dl0MnxyBd_Y3A5cLGqDN-317" value="&lt;h1&gt;&lt;font style=&quot;&quot;&gt;Landing Page&lt;/font&gt;&lt;/h1&gt;" style="rounded=1;whiteSpace=wrap;html=1;fontFamily=Helvetica;align=center;verticalAlign=middle;fontSize=12;fillColor=#008a00;strokeColor=none;glass=0;strokeWidth=2;gradientDirection=radial;fillStyle=solid;fontColor=light-dark(#FFFFFF,#FFFFFF);movable=1;resizable=1;rotatable=1;deletable=1;editable=1;locked=0;connectable=1;" parent="dl0MnxyBd_Y3A5cLGqDN-315" vertex="1">
          <mxGeometry x="308.8261764705883" y="140.3599999999999" width="180" height="70" as="geometry" />
        </mxCell>
        <mxCell id="dl0MnxyBd_Y3A5cLGqDN-318" style="edgeStyle=orthogonalEdgeStyle;rounded=0;orthogonalLoop=1;jettySize=auto;html=1;exitX=1;exitY=0.5;exitDx=0;exitDy=0;entryX=0;entryY=0.5;entryDx=0;entryDy=0;startArrow=oval;startFill=1;strokeWidth=4;fillColor=#cdeb8b;strokeColor=#009900;movable=1;resizable=1;rotatable=1;deletable=1;editable=1;locked=0;connectable=1;" parent="dl0MnxyBd_Y3A5cLGqDN-315" source="dl0MnxyBd_Y3A5cLGqDN-322" target="dl0MnxyBd_Y3A5cLGqDN-317" edge="1">
          <mxGeometry relative="1" as="geometry">
            <Array as="points">
              <mxPoint x="248.82617647058828" y="286.3599999999999" />
              <mxPoint x="248.82617647058828" y="175.3599999999999" />
            </Array>
          </mxGeometry>
        </mxCell>
        <mxCell id="dl0MnxyBd_Y3A5cLGqDN-319" style="edgeStyle=orthogonalEdgeStyle;rounded=0;orthogonalLoop=1;jettySize=auto;html=1;exitX=1;exitY=0.5;exitDx=0;exitDy=0;entryX=0;entryY=0.5;entryDx=0;entryDy=0;startArrow=oval;startFill=1;strokeWidth=4;movable=1;resizable=1;rotatable=1;deletable=1;editable=1;locked=0;connectable=1;strokeColor=light-dark(#FFFFFF,#FFFFFF);" parent="dl0MnxyBd_Y3A5cLGqDN-315" source="dl0MnxyBd_Y3A5cLGqDN-322" target="dl0MnxyBd_Y3A5cLGqDN-324" edge="1">
          <mxGeometry relative="1" as="geometry">
            <Array as="points">
              <mxPoint x="248.82617647058828" y="286.3599999999999" />
              <mxPoint x="248.82617647058828" y="265.3599999999999" />
            </Array>
          </mxGeometry>
        </mxCell>
        <mxCell id="dl0MnxyBd_Y3A5cLGqDN-320" style="edgeStyle=orthogonalEdgeStyle;rounded=0;orthogonalLoop=1;jettySize=auto;html=1;exitX=1;exitY=0.5;exitDx=0;exitDy=0;entryX=0;entryY=0.5;entryDx=0;entryDy=0;strokeColor=light-dark(#FFFFFF,#FFFFFF);strokeWidth=4;align=center;verticalAlign=middle;fontFamily=Helvetica;fontSize=11;fontColor=default;labelBackgroundColor=default;startArrow=oval;startFill=1;endArrow=classic;movable=1;resizable=1;rotatable=1;deletable=1;editable=1;locked=0;connectable=1;" parent="dl0MnxyBd_Y3A5cLGqDN-315" source="dl0MnxyBd_Y3A5cLGqDN-322" target="dl0MnxyBd_Y3A5cLGqDN-326" edge="1">
          <mxGeometry relative="1" as="geometry">
            <Array as="points">
              <mxPoint x="248.82617647058828" y="286.3599999999999" />
              <mxPoint x="248.82617647058828" y="425.3599999999999" />
            </Array>
          </mxGeometry>
        </mxCell>
        <mxCell id="dl0MnxyBd_Y3A5cLGqDN-321" style="edgeStyle=orthogonalEdgeStyle;rounded=0;orthogonalLoop=1;jettySize=auto;html=1;exitX=1;exitY=0.5;exitDx=0;exitDy=0;entryX=0;entryY=0.5;entryDx=0;entryDy=0;strokeColor=light-dark(#FFFFFF,#FFFFFF);strokeWidth=4;align=center;verticalAlign=middle;fontFamily=Helvetica;fontSize=11;fontColor=default;labelBackgroundColor=default;startArrow=oval;startFill=1;endArrow=classic;movable=1;resizable=1;rotatable=1;deletable=1;editable=1;locked=0;connectable=1;" parent="dl0MnxyBd_Y3A5cLGqDN-315" source="dl0MnxyBd_Y3A5cLGqDN-322" target="dl0MnxyBd_Y3A5cLGqDN-328" edge="1">
          <mxGeometry relative="1" as="geometry">
            <Array as="points">
              <mxPoint x="249" y="286" />
              <mxPoint x="249" y="345" />
            </Array>
          </mxGeometry>
        </mxCell>
        <mxCell id="dl0MnxyBd_Y3A5cLGqDN-322" value="&lt;h1&gt;&lt;font style=&quot;&quot;&gt;/&lt;/font&gt;&lt;/h1&gt;" style="rounded=1;whiteSpace=wrap;html=1;fontFamily=Helvetica;strokeColor=#006EAF;align=center;verticalAlign=middle;fontSize=12;fontColor=light-dark(#FFFFFF,#FFFFFF);fillColor=#1ba1e2;movable=1;resizable=1;rotatable=1;deletable=1;editable=1;locked=0;connectable=1;" parent="dl0MnxyBd_Y3A5cLGqDN-315" vertex="1">
          <mxGeometry y="260.73694059465447" width="202.67058823529413" height="50.885368126747416" as="geometry" />
        </mxCell>
        <mxCell id="dl0MnxyBd_Y3A5cLGqDN-323" style="edgeStyle=orthogonalEdgeStyle;rounded=0;orthogonalLoop=1;jettySize=auto;html=1;exitX=1;exitY=0.5;exitDx=0;exitDy=0;entryX=0;entryY=0.5;entryDx=0;entryDy=0;strokeColor=#009900;strokeWidth=4;align=center;verticalAlign=middle;fontFamily=Helvetica;fontSize=11;fontColor=default;labelBackgroundColor=default;startArrow=oval;startFill=1;endArrow=classic;fillColor=#cdeb8b;movable=1;resizable=1;rotatable=1;deletable=1;editable=1;locked=0;connectable=1;" parent="dl0MnxyBd_Y3A5cLGqDN-315" source="dl0MnxyBd_Y3A5cLGqDN-324" target="dl0MnxyBd_Y3A5cLGqDN-329" edge="1">
          <mxGeometry relative="1" as="geometry" />
        </mxCell>
        <mxCell id="dl0MnxyBd_Y3A5cLGqDN-324" value="&lt;h1&gt;&lt;font style=&quot;&quot;&gt;/login&lt;/font&gt;&lt;/h1&gt;" style="rounded=1;whiteSpace=wrap;html=1;fontFamily=Helvetica;strokeColor=#006EAF;align=center;verticalAlign=middle;fontSize=12;fontColor=light-dark(#FFFFFF,#FFFFFF);fillColor=#1ba1e2;movable=1;resizable=1;rotatable=1;deletable=1;editable=1;locked=0;connectable=1;" parent="dl0MnxyBd_Y3A5cLGqDN-315" vertex="1">
          <mxGeometry x="308.8261764705883" y="240.3599999999999" width="180" height="50" as="geometry" />
        </mxCell>
        <mxCell id="dl0MnxyBd_Y3A5cLGqDN-325" style="edgeStyle=orthogonalEdgeStyle;rounded=0;orthogonalLoop=1;jettySize=auto;html=1;exitX=1;exitY=0.5;exitDx=0;exitDy=0;entryX=0;entryY=0.5;entryDx=0;entryDy=0;strokeColor=#009900;strokeWidth=4;align=center;verticalAlign=middle;fontFamily=Helvetica;fontSize=11;fontColor=default;labelBackgroundColor=default;startArrow=oval;startFill=1;endArrow=classic;fillColor=#cdeb8b;movable=1;resizable=1;rotatable=1;deletable=1;editable=1;locked=0;connectable=1;" parent="dl0MnxyBd_Y3A5cLGqDN-315" source="dl0MnxyBd_Y3A5cLGqDN-326" target="dl0MnxyBd_Y3A5cLGqDN-329" edge="1">
          <mxGeometry relative="1" as="geometry" />
        </mxCell>
        <mxCell id="dl0MnxyBd_Y3A5cLGqDN-326" value="&lt;h1&gt;&lt;font style=&quot;&quot;&gt;/logout&lt;/font&gt;&lt;/h1&gt;" style="rounded=1;whiteSpace=wrap;html=1;fontFamily=Helvetica;strokeColor=#006EAF;align=center;verticalAlign=middle;fontSize=12;fontColor=light-dark(#FFFFFF,#FFFFFF);fillColor=#1ba1e2;movable=1;resizable=1;rotatable=1;deletable=1;editable=1;locked=0;connectable=1;" parent="dl0MnxyBd_Y3A5cLGqDN-315" vertex="1">
          <mxGeometry x="308.8261764705883" y="400.3599999999999" width="180" height="50" as="geometry" />
        </mxCell>
        <mxCell id="dl0MnxyBd_Y3A5cLGqDN-327" style="edgeStyle=orthogonalEdgeStyle;rounded=0;orthogonalLoop=1;jettySize=auto;html=1;exitX=1;exitY=0.5;exitDx=0;exitDy=0;entryX=0;entryY=0.5;entryDx=0;entryDy=0;strokeColor=#009900;strokeWidth=4;align=center;verticalAlign=middle;fontFamily=Helvetica;fontSize=11;fontColor=default;labelBackgroundColor=default;startArrow=oval;startFill=1;endArrow=classic;fillColor=#cdeb8b;movable=1;resizable=1;rotatable=1;deletable=1;editable=1;locked=0;connectable=1;" parent="dl0MnxyBd_Y3A5cLGqDN-315" source="dl0MnxyBd_Y3A5cLGqDN-328" target="dl0MnxyBd_Y3A5cLGqDN-329" edge="1">
          <mxGeometry relative="1" as="geometry" />
        </mxCell>
        <mxCell id="dl0MnxyBd_Y3A5cLGqDN-328" value="&lt;h1&gt;&lt;font style=&quot;&quot;&gt;/signup&lt;/font&gt;&lt;/h1&gt;" style="rounded=1;whiteSpace=wrap;html=1;fontFamily=Helvetica;strokeColor=#006EAF;align=center;verticalAlign=middle;fontSize=12;fontColor=light-dark(#FFFFFF,#FFFFFF);fillColor=#1ba1e2;movable=1;resizable=1;rotatable=1;deletable=1;editable=1;locked=0;connectable=1;" parent="dl0MnxyBd_Y3A5cLGqDN-315" vertex="1">
          <mxGeometry x="308.8261764705883" y="320.3599999999999" width="180" height="50" as="geometry" />
        </mxCell>
        <mxCell id="dl0MnxyBd_Y3A5cLGqDN-329" value="&lt;h1&gt;&lt;font style=&quot;&quot;&gt;Login/Signup Page&lt;/font&gt;&lt;/h1&gt;" style="rounded=1;whiteSpace=wrap;html=1;fontFamily=Helvetica;align=center;verticalAlign=middle;fontSize=12;fillColor=#008a00;strokeColor=none;glass=0;strokeWidth=2;gradientDirection=radial;fillStyle=solid;fontColor=light-dark(#FFFFFF,#FFFFFF);movable=1;resizable=1;rotatable=1;deletable=1;editable=1;locked=0;connectable=1;" parent="dl0MnxyBd_Y3A5cLGqDN-315" vertex="1">
          <mxGeometry x="548.8261764705884" y="310.3599999999999" width="180" height="70" as="geometry" />
        </mxCell>
        <mxCell id="dl0MnxyBd_Y3A5cLGqDN-330" style="edgeStyle=orthogonalEdgeStyle;rounded=0;orthogonalLoop=1;jettySize=auto;html=1;exitX=0.997;exitY=0.545;exitDx=0;exitDy=0;entryX=0;entryY=0.5;entryDx=0;entryDy=0;strokeColor=light-dark(#FFFFFF,#FFFFFF);strokeWidth=4;align=center;verticalAlign=middle;fontFamily=Helvetica;fontSize=11;fontColor=default;labelBackgroundColor=default;startArrow=oval;startFill=1;endArrow=classic;exitPerimeter=0;movable=1;resizable=1;rotatable=1;deletable=1;editable=1;locked=0;connectable=1;" parent="dl0MnxyBd_Y3A5cLGqDN-315" source="dl0MnxyBd_Y3A5cLGqDN-336" target="dl0MnxyBd_Y3A5cLGqDN-334" edge="1">
          <mxGeometry relative="1" as="geometry" />
        </mxCell>
        <mxCell id="dl0MnxyBd_Y3A5cLGqDN-331" style="edgeStyle=orthogonalEdgeStyle;rounded=0;orthogonalLoop=1;jettySize=auto;html=1;exitX=1;exitY=0.534;exitDx=0;exitDy=0;strokeColor=light-dark(#FFFFFF,#FFFFFF);strokeWidth=4;align=center;verticalAlign=middle;fontFamily=Helvetica;fontSize=11;fontColor=default;labelBackgroundColor=default;startArrow=oval;startFill=1;endArrow=classic;exitPerimeter=0;movable=1;resizable=1;rotatable=1;deletable=1;editable=1;locked=0;connectable=1;" parent="dl0MnxyBd_Y3A5cLGqDN-315" source="dl0MnxyBd_Y3A5cLGqDN-336" target="dl0MnxyBd_Y3A5cLGqDN-333" edge="1">
          <mxGeometry relative="1" as="geometry" />
        </mxCell>
        <mxCell id="dl0MnxyBd_Y3A5cLGqDN-332" value="&lt;h1&gt;&lt;font style=&quot;&quot;&gt;/user&lt;/font&gt;&lt;/h1&gt;" style="rounded=1;whiteSpace=wrap;html=1;fontFamily=Helvetica;strokeColor=#006EAF;align=center;verticalAlign=middle;fontSize=12;fontColor=light-dark(#FFFFFF,#FFFFFF);fillColor=#1ba1e2;movable=1;resizable=1;rotatable=1;deletable=1;editable=1;locked=0;connectable=1;" parent="dl0MnxyBd_Y3A5cLGqDN-315" vertex="1">
          <mxGeometry x="309.99617647058835" y="470.3599999999999" width="180" height="50" as="geometry" />
        </mxCell>
        <mxCell id="dl0MnxyBd_Y3A5cLGqDN-333" value="&lt;h1&gt;&lt;font style=&quot;&quot;&gt;/receive&lt;/font&gt;&lt;/h1&gt;" style="rounded=1;whiteSpace=wrap;html=1;fontFamily=Helvetica;strokeColor=#006EAF;align=center;verticalAlign=middle;fontSize=12;fontColor=light-dark(#FFFFFF,#FFFFFF);fillColor=#1ba1e2;movable=1;resizable=1;rotatable=1;deletable=1;editable=1;locked=0;connectable=1;" parent="dl0MnxyBd_Y3A5cLGqDN-315" vertex="1">
          <mxGeometry x="789.9961764705884" y="510" width="180" height="50" as="geometry" />
        </mxCell>
        <mxCell id="dl0MnxyBd_Y3A5cLGqDN-334" value="&lt;h1&gt;&lt;font style=&quot;&quot;&gt;/send&lt;/font&gt;&lt;/h1&gt;" style="rounded=1;whiteSpace=wrap;html=1;fontFamily=Helvetica;strokeColor=#006EAF;align=center;verticalAlign=middle;fontSize=12;fontColor=light-dark(#FFFFFF,#FFFFFF);fillColor=#1ba1e2;movable=1;resizable=1;rotatable=1;deletable=1;editable=1;locked=0;connectable=1;" parent="dl0MnxyBd_Y3A5cLGqDN-315" vertex="1">
          <mxGeometry x="789.9961764705884" y="440" width="180" height="50" as="geometry" />
        </mxCell>
        <mxCell id="dl0MnxyBd_Y3A5cLGqDN-335" style="edgeStyle=orthogonalEdgeStyle;rounded=0;orthogonalLoop=1;jettySize=auto;html=1;strokeColor=light-dark(#FFFFFF,#FFFFFF);strokeWidth=4;align=center;verticalAlign=middle;fontFamily=Helvetica;fontSize=11;fontColor=default;labelBackgroundColor=default;startArrow=oval;startFill=1;endArrow=classic;entryX=-0.008;entryY=0.483;entryDx=0;entryDy=0;entryPerimeter=0;movable=1;resizable=1;rotatable=1;deletable=1;editable=1;locked=0;connectable=1;exitX=1;exitY=0.443;exitDx=0;exitDy=0;exitPerimeter=0;" parent="dl0MnxyBd_Y3A5cLGqDN-315" edge="1">
          <mxGeometry relative="1" as="geometry">
            <Array as="points">
              <mxPoint x="249" y="286" />
              <mxPoint x="249" y="498" />
            </Array>
            <mxPoint x="202.67058823529442" y="286.27915867480397" as="sourcePoint" />
            <mxPoint x="308.556176470589" y="497.5099999999993" as="targetPoint" />
          </mxGeometry>
        </mxCell>
        <mxCell id="dl0MnxyBd_Y3A5cLGqDN-336" value="&lt;h1&gt;&lt;font style=&quot;&quot;&gt;User Page&lt;/font&gt;&lt;/h1&gt;" style="rounded=1;whiteSpace=wrap;html=1;fontFamily=Helvetica;align=center;verticalAlign=middle;fontSize=12;fillColor=#008a00;strokeColor=none;glass=0;strokeWidth=2;gradientDirection=radial;fillStyle=solid;fontColor=light-dark(#FFFFFF,#FFFFFF);movable=1;resizable=1;rotatable=1;deletable=1;editable=1;locked=0;connectable=1;" parent="dl0MnxyBd_Y3A5cLGqDN-315" vertex="1">
          <mxGeometry x="569.9961764705884" y="460" width="180" height="70" as="geometry" />
        </mxCell>
        <mxCell id="dl0MnxyBd_Y3A5cLGqDN-337" style="edgeStyle=orthogonalEdgeStyle;rounded=0;orthogonalLoop=1;jettySize=auto;html=1;exitX=1;exitY=0.5;exitDx=0;exitDy=0;strokeColor=light-dark(#2D7600, #009900);strokeWidth=4;align=center;verticalAlign=middle;fontFamily=Helvetica;fontSize=11;fontColor=default;labelBackgroundColor=default;startArrow=oval;startFill=1;endArrow=classic;entryX=0;entryY=0.5;entryDx=0;entryDy=0;fillColor=#60a917;movable=1;resizable=1;rotatable=1;deletable=1;editable=1;locked=0;connectable=1;" parent="dl0MnxyBd_Y3A5cLGqDN-315" source="dl0MnxyBd_Y3A5cLGqDN-332" target="dl0MnxyBd_Y3A5cLGqDN-336" edge="1">
          <mxGeometry relative="1" as="geometry">
            <mxPoint x="1179.9961764705884" y="417" as="sourcePoint" />
            <mxPoint x="1239.9961764705884" y="455" as="targetPoint" />
          </mxGeometry>
        </mxCell>
        <mxCell id="dl0MnxyBd_Y3A5cLGqDN-338" value="" style="group;movable=1;resizable=1;rotatable=1;deletable=1;editable=1;locked=0;connectable=1;" parent="47" vertex="1" connectable="0">
          <mxGeometry x="-1170" y="1210" width="1728.28" height="790" as="geometry" />
        </mxCell>
        <mxCell id="dl0MnxyBd_Y3A5cLGqDN-339" value="&amp;nbsp; &amp;nbsp; &amp;nbsp;&amp;nbsp;" style="rounded=1;whiteSpace=wrap;html=1;fillColor=#bac8d3;strokeColor=#23445d;movable=1;resizable=1;rotatable=1;deletable=1;editable=1;locked=0;connectable=1;" parent="dl0MnxyBd_Y3A5cLGqDN-338" vertex="1">
          <mxGeometry width="1728.28" height="790" as="geometry" />
        </mxCell>
        <mxCell id="dl0MnxyBd_Y3A5cLGqDN-340" value="&lt;h1&gt;Socket.io Client&lt;/h1&gt;" style="rounded=1;whiteSpace=wrap;html=1;fontFamily=Helvetica;strokeColor=#006EAF;align=center;verticalAlign=middle;fontSize=12;fontColor=#ffffff;fillColor=#1ba1e2;" parent="dl0MnxyBd_Y3A5cLGqDN-338" vertex="1">
          <mxGeometry x="717.83031662652" y="11.71870615545522" width="285.3214377339873" height="58.815208795693984" as="geometry" />
        </mxCell>
        <mxCell id="dl0MnxyBd_Y3A5cLGqDN-341" style="edgeStyle=orthogonalEdgeStyle;rounded=0;orthogonalLoop=1;jettySize=auto;html=1;exitX=0.5;exitY=1;exitDx=0;exitDy=0;entryX=0.5;entryY=0;entryDx=0;entryDy=0;strokeColor=light-dark(#FFFFFF,#FFFFFF);strokeWidth=4;align=center;verticalAlign=middle;fontFamily=Helvetica;fontSize=11;fontColor=default;labelBackgroundColor=default;resizable=1;startArrow=oval;startFill=1;endArrow=classic;" parent="dl0MnxyBd_Y3A5cLGqDN-338" source="dl0MnxyBd_Y3A5cLGqDN-343" target="dl0MnxyBd_Y3A5cLGqDN-344" edge="1">
          <mxGeometry relative="1" as="geometry" />
        </mxCell>
        <mxCell id="dl0MnxyBd_Y3A5cLGqDN-342" style="edgeStyle=orthogonalEdgeStyle;rounded=0;orthogonalLoop=1;jettySize=auto;html=1;exitX=0.5;exitY=1;exitDx=0;exitDy=0;strokeColor=light-dark(#FFFFFF,#FFFFFF);strokeWidth=4;align=center;verticalAlign=middle;fontFamily=Helvetica;fontSize=11;fontColor=default;labelBackgroundColor=default;resizable=1;startArrow=oval;startFill=1;endArrow=classic;" parent="dl0MnxyBd_Y3A5cLGqDN-338" source="dl0MnxyBd_Y3A5cLGqDN-343" target="dl0MnxyBd_Y3A5cLGqDN-345" edge="1">
          <mxGeometry relative="1" as="geometry" />
        </mxCell>
        <mxCell id="dl0MnxyBd_Y3A5cLGqDN-343" value="&lt;h1&gt;/socket/v1&lt;/h1&gt;" style="rounded=1;whiteSpace=wrap;html=1;fontFamily=Helvetica;strokeColor=#006EAF;align=center;verticalAlign=middle;fontSize=12;fontColor=#ffffff;fillColor=#1ba1e2;movable=1;resizable=1;rotatable=1;deletable=1;editable=1;locked=0;connectable=1;" parent="dl0MnxyBd_Y3A5cLGqDN-338" vertex="1">
          <mxGeometry x="349.99669193861894" y="60.998127799657226" width="304.5839341176471" height="61.84529356943149" as="geometry" />
        </mxCell>
        <mxCell id="dl0MnxyBd_Y3A5cLGqDN-344" value="&lt;h1&gt;Sender&lt;/h1&gt;" style="rounded=1;whiteSpace=wrap;html=1;fontFamily=Helvetica;strokeColor=#001DBC;align=center;verticalAlign=middle;fontSize=12;fontColor=#ffffff;fillColor=#0050ef;movable=1;resizable=1;rotatable=1;deletable=1;editable=1;locked=0;connectable=1;" parent="dl0MnxyBd_Y3A5cLGqDN-338" vertex="1">
          <mxGeometry x="179.99669193861894" y="179.99812779965714" width="304.5839341176471" height="61.84529356943149" as="geometry" />
        </mxCell>
        <mxCell id="dl0MnxyBd_Y3A5cLGqDN-345" value="&lt;h1&gt;Receiver&lt;/h1&gt;" style="rounded=1;whiteSpace=wrap;html=1;fontFamily=Helvetica;strokeColor=#001DBC;align=center;verticalAlign=middle;fontSize=12;fontColor=#ffffff;fillColor=#0050ef;movable=1;resizable=1;rotatable=1;deletable=1;editable=1;locked=0;connectable=1;" parent="dl0MnxyBd_Y3A5cLGqDN-338" vertex="1">
          <mxGeometry x="569.9966919386189" y="179.99812779965714" width="304.5839341176471" height="61.84529356943149" as="geometry" />
        </mxCell>
        <mxCell id="dl0MnxyBd_Y3A5cLGqDN-355" value="" style="group" parent="dl0MnxyBd_Y3A5cLGqDN-338" vertex="1" connectable="0">
          <mxGeometry x="99.99999999999997" y="250" width="630" height="500" as="geometry" />
        </mxCell>
        <mxCell id="dl0MnxyBd_Y3A5cLGqDN-356" value="" style="rounded=1;whiteSpace=wrap;html=1;fillColor=#b1ddf0;strokeColor=#10739e;" parent="dl0MnxyBd_Y3A5cLGqDN-355" vertex="1">
          <mxGeometry width="630" height="500" as="geometry" />
        </mxCell>
        <mxCell id="dl0MnxyBd_Y3A5cLGqDN-357" value="&lt;h1&gt;Events&lt;/h1&gt;" style="rounded=1;whiteSpace=wrap;html=1;fontFamily=Helvetica;strokeColor=#001DBC;align=center;verticalAlign=middle;fontSize=12;fontColor=#ffffff;fillColor=#0050ef;movable=1;resizable=1;rotatable=1;deletable=1;editable=1;locked=0;connectable=1;" parent="dl0MnxyBd_Y3A5cLGqDN-355" vertex="1">
          <mxGeometry x="179.99669193861894" y="19.998127799657254" width="304.5839341176471" height="61.84529356943149" as="geometry" />
        </mxCell>
        <mxCell id="dl0MnxyBd_Y3A5cLGqDN-358" value="&lt;font face=&quot;Georgia&quot; style=&quot;font-size: 27px; color: rgb(0, 127, 255);&quot;&gt;paired-sender-server&lt;/font&gt;" style="rounded=0;whiteSpace=wrap;html=1;fillColor=#b0e3e6;strokeColor=#0e8088;" parent="dl0MnxyBd_Y3A5cLGqDN-355" vertex="1">
          <mxGeometry x="50" y="100" width="310" height="60" as="geometry" />
        </mxCell>
        <mxCell id="dl0MnxyBd_Y3A5cLGqDN-359" value="&lt;font face=&quot;Georgia&quot; style=&quot;font-size: 27px; color: rgb(0, 127, 255);&quot;&gt;paired-sender-server&lt;/font&gt;" style="rounded=0;whiteSpace=wrap;html=1;fillColor=#b0e3e6;strokeColor=#0e8088;" parent="dl0MnxyBd_Y3A5cLGqDN-355" vertex="1">
          <mxGeometry x="50" y="360" width="310" height="60" as="geometry" />
        </mxCell>
        <mxCell id="dl0MnxyBd_Y3A5cLGqDN-360" value="&lt;font face=&quot;Georgia&quot; style=&quot;font-size: 27px; color: rgb(0, 127, 255);&quot;&gt;pair-request-server&lt;/font&gt;" style="rounded=0;whiteSpace=wrap;html=1;fillColor=#b0e3e6;strokeColor=#0e8088;" parent="dl0MnxyBd_Y3A5cLGqDN-355" vertex="1">
          <mxGeometry x="50" y="187" width="310" height="60" as="geometry" />
        </mxCell>
        <mxCell id="dl0MnxyBd_Y3A5cLGqDN-361" value="&lt;font face=&quot;Georgia&quot; style=&quot;font-size: 27px; color: rgb(0, 127, 255);&quot;&gt;paired-sender-server&lt;/font&gt;" style="rounded=0;whiteSpace=wrap;html=1;fillColor=#b0e3e6;strokeColor=#0e8088;" parent="dl0MnxyBd_Y3A5cLGqDN-355" vertex="1">
          <mxGeometry x="50" y="273" width="310" height="60" as="geometry" />
        </mxCell>
        <mxCell id="50" value="Database" style="locked=1;" parent="0" />
        <mxCell id="dl0MnxyBd_Y3A5cLGqDN-256" value="" style="group;movable=1;resizable=1;rotatable=1;deletable=1;editable=1;locked=0;connectable=1;" parent="50" vertex="1" connectable="0">
          <mxGeometry x="1020" y="-390" width="1670" height="590" as="geometry" />
        </mxCell>
        <mxCell id="51" value="" style="rounded=1;whiteSpace=wrap;html=1;fillStyle=auto;strokeColor=#10739e;align=center;verticalAlign=middle;fontFamily=Times New Roman;fontSize=12;fillColor=#b1ddf0;shadow=0;movable=1;resizable=1;rotatable=1;deletable=1;editable=1;locked=0;connectable=1;" parent="dl0MnxyBd_Y3A5cLGqDN-256" vertex="1">
          <mxGeometry width="1670" height="590" as="geometry" />
        </mxCell>
        <mxCell id="53" value="&lt;h1&gt;&lt;font style=&quot;font-size: 35px; color: light-dark(rgb(255, 255, 255), rgb(255, 255, 255));&quot;&gt;Database - MongoDB&lt;/font&gt;&lt;/h1&gt;" style="rounded=1;whiteSpace=wrap;html=1;fontFamily=Helvetica;strokeColor=#001DBC;align=center;verticalAlign=middle;fontSize=12;fontColor=#ffffff;fillColor=#0050ef;movable=0;resizable=0;rotatable=0;deletable=0;editable=0;locked=1;connectable=0;" parent="dl0MnxyBd_Y3A5cLGqDN-256" vertex="1">
          <mxGeometry x="505" y="40" width="640" height="80" as="geometry" />
        </mxCell>
        <mxCell id="74" value="" style="group;fontFamily=Times New Roman;movable=0;resizable=0;rotatable=0;deletable=0;editable=0;locked=1;connectable=0;labelBackgroundColor=#15E7FF;rounded=1;glass=0;shadow=0;fillColor=#fad7ac;strokeColor=#b46504;fillStyle=auto;" parent="dl0MnxyBd_Y3A5cLGqDN-256" vertex="1" connectable="0">
          <mxGeometry x="80" y="220" width="420" height="310" as="geometry" />
        </mxCell>
        <mxCell id="0_KBqYn_ndAyOyzbdBZQ-88" value="" style="group;" parent="74" vertex="1" connectable="0">
          <mxGeometry x="280" y="166.10711111111115" width="94.93473684210527" height="86.1111111111111" as="geometry" />
        </mxCell>
        <mxCell id="0_KBqYn_ndAyOyzbdBZQ-95" value="" style="group;" parent="0_KBqYn_ndAyOyzbdBZQ-88" vertex="1" connectable="0">
          <mxGeometry width="94.93473684210527" height="86.1111111111111" as="geometry" />
        </mxCell>
        <mxCell id="75" value="" style="shape=cylinder3;whiteSpace=wrap;html=1;boundedLbl=1;backgroundOutline=1;size=15;fontFamily=Times New Roman;fillColor=#60a917;fontColor=#ffffff;strokeColor=#2D7600;" parent="0_KBqYn_ndAyOyzbdBZQ-95" vertex="1">
          <mxGeometry width="94.93473684210527" height="86.1111111111111" as="geometry" />
        </mxCell>
        <mxCell id="0_KBqYn_ndAyOyzbdBZQ-174" value="&lt;pre&gt;&lt;font face=&quot;Times New Roman&quot; style=&quot;font-size: 10px; color: light-dark(rgb(255, 255, 255), rgb(255, 255, 255));&quot;&gt;&lt;b&gt;Replica Secondary&lt;/b&gt;&lt;/font&gt;&lt;/pre&gt;" style="text;strokeColor=none;align=center;fillColor=none;html=1;verticalAlign=middle;whiteSpace=wrap;rounded=0;fontFamily=Times New Roman;" parent="0_KBqYn_ndAyOyzbdBZQ-95" vertex="1">
          <mxGeometry x="15.452631578947148" y="25.892888888888848" width="68.03263157894736" height="42.318444444444445" as="geometry" />
        </mxCell>
        <mxCell id="0_KBqYn_ndAyOyzbdBZQ-96" value="" style="group;" parent="74" vertex="1" connectable="0">
          <mxGeometry x="44.21052631578947" y="164.10888888888888" width="94.93473684210527" height="86.1111111111111" as="geometry" />
        </mxCell>
        <mxCell id="0_KBqYn_ndAyOyzbdBZQ-97" value="" style="shape=cylinder3;whiteSpace=wrap;html=1;boundedLbl=1;backgroundOutline=1;size=15;fontFamily=Times New Roman;fillColor=#60a917;strokeColor=#2D7600;fontColor=#ffffff;" parent="0_KBqYn_ndAyOyzbdBZQ-96" vertex="1">
          <mxGeometry width="94.93473684210527" height="86.1111111111111" as="geometry" />
        </mxCell>
        <mxCell id="0_KBqYn_ndAyOyzbdBZQ-98" value="&lt;pre&gt;&lt;font face=&quot;Times New Roman&quot; style=&quot;font-size: 10px; color: light-dark(rgb(255, 255, 255), rgb(255, 255, 255));&quot;&gt;&lt;b&gt;Replica Secondary&lt;/b&gt;&lt;/font&gt;&lt;/pre&gt;" style="text;strokeColor=none;align=center;fillColor=none;html=1;verticalAlign=middle;whiteSpace=wrap;rounded=0;fontFamily=Times New Roman;" parent="0_KBqYn_ndAyOyzbdBZQ-96" vertex="1">
          <mxGeometry x="13.882105263157875" y="28.11111111111111" width="68.03263157894736" height="42.318444444444445" as="geometry" />
        </mxCell>
        <mxCell id="0_KBqYn_ndAyOyzbdBZQ-99" value="" style="group" parent="74" vertex="1" connectable="0">
          <mxGeometry x="162.10526315789474" y="62" width="94.93473684210527" height="86.1111111111111" as="geometry" />
        </mxCell>
        <mxCell id="0_KBqYn_ndAyOyzbdBZQ-100" value="" style="shape=cylinder3;whiteSpace=wrap;html=1;boundedLbl=1;backgroundOutline=1;size=15;fontFamily=Times New Roman;fillColor=#60a917;fontColor=#ffffff;strokeColor=#2D7600;" parent="0_KBqYn_ndAyOyzbdBZQ-99" vertex="1">
          <mxGeometry width="94.93473684210527" height="86.1111111111111" as="geometry" />
        </mxCell>
        <mxCell id="0_KBqYn_ndAyOyzbdBZQ-101" value="&lt;pre&gt;&lt;font face=&quot;Times New Roman&quot; style=&quot;font-size: 10px; color: light-dark(rgb(255, 255, 255), rgb(255, 255, 255));&quot;&gt;&lt;b&gt;Replica Primary&lt;/b&gt;&lt;/font&gt;&lt;/pre&gt;" style="text;strokeColor=none;align=center;fillColor=none;html=1;verticalAlign=middle;whiteSpace=wrap;rounded=0;fontFamily=Times New Roman;fontSize=12;fontColor=default;" parent="0_KBqYn_ndAyOyzbdBZQ-99" vertex="1">
          <mxGeometry x="13.882105263157875" y="24.11111111111111" width="68.03263157894736" height="42.318444444444445" as="geometry" />
        </mxCell>
        <mxCell id="0_KBqYn_ndAyOyzbdBZQ-104" value="&lt;h1&gt;&lt;font style=&quot;color: light-dark(rgb(255, 255, 255), rgb(255, 255, 255));&quot;&gt;Shard 1&lt;/font&gt;&lt;/h1&gt;" style="rounded=1;whiteSpace=wrap;html=1;fontFamily=Helvetica;strokeColor=#006EAF;align=center;verticalAlign=middle;fontSize=12;fontColor=#ffffff;fillColor=#1ba1e2;" parent="74" vertex="1">
          <mxGeometry x="132.6315789473684" y="6.888888888888888" width="140.42736842105265" height="27.555555555555554" as="geometry" />
        </mxCell>
        <mxCell id="0_KBqYn_ndAyOyzbdBZQ-168" value="" style="group" parent="74" vertex="1" connectable="0">
          <mxGeometry x="125" y="107.33" width="33.74" height="75.78" as="geometry" />
        </mxCell>
        <mxCell id="0_KBqYn_ndAyOyzbdBZQ-169" value="" style="group" parent="0_KBqYn_ndAyOyzbdBZQ-168" vertex="1" connectable="0">
          <mxGeometry width="33.74" height="75.78" as="geometry" />
        </mxCell>
        <mxCell id="0_KBqYn_ndAyOyzbdBZQ-170" value="&lt;h4&gt;&lt;font face=&quot;Times New Roman&quot; style=&quot;font-size: 7px;&quot;&gt;WRITE&lt;/font&gt;&lt;/h4&gt;" style="rounded=1;whiteSpace=wrap;html=1;align=center;spacingBottom=4;labelBackgroundColor=none;fillColor=#1ba1e2;fontColor=#ffffff;strokeColor=#006EAF;" parent="0_KBqYn_ndAyOyzbdBZQ-169" vertex="1">
          <mxGeometry y="25.260000000000005" width="33.74" height="8.42" as="geometry" />
        </mxCell>
        <mxCell id="0_KBqYn_ndAyOyzbdBZQ-171" value="" style="verticalAlign=middle;endArrow=block;curved=0;rounded=0;fillColor=#1ba1e2;strokeColor=#006EAF;strokeWidth=3;flowAnimation=1;fontColor=#FFFFFF;labelBackgroundColor=#3333FF;spacingRight=0;spacingBottom=0;spacingLeft=21;fontFamily=Times New Roman;labelBorderColor=none;labelPosition=center;verticalLabelPosition=middle;align=center;textShadow=0;html=1;dashed=1;startArrow=none;startFill=0;dashPattern=1 1;shadow=0;entryX=0.783;entryY=0.016;entryDx=0;entryDy=0;entryPerimeter=0;" parent="74" source="0_KBqYn_ndAyOyzbdBZQ-170" target="0_KBqYn_ndAyOyzbdBZQ-97" edge="1">
          <mxGeometry x="-0.3333" y="10" width="80" relative="1" as="geometry">
            <mxPoint x="164.3157894736842" y="135.4814814814815" as="sourcePoint" />
            <mxPoint x="160.6315789473684" y="186.00000000000009" as="targetPoint" />
            <mxPoint as="offset" />
          </mxGeometry>
        </mxCell>
        <mxCell id="0_KBqYn_ndAyOyzbdBZQ-172" value="" style="verticalAlign=middle;endArrow=none;curved=0;rounded=0;fillColor=#1ba1e2;strokeColor=#006EAF;strokeWidth=3;flowAnimation=1;fontColor=#FFFFFF;labelBackgroundColor=#3333FF;spacingRight=0;spacingBottom=0;spacingLeft=21;fontFamily=Times New Roman;labelBorderColor=none;labelPosition=center;verticalLabelPosition=middle;align=center;textShadow=0;html=1;dashed=1;startArrow=oval;startFill=0;dashPattern=1 1;shadow=0;exitX=0.013;exitY=0.572;exitDx=0;exitDy=0;exitPerimeter=0;" parent="74" source="0_KBqYn_ndAyOyzbdBZQ-100" target="0_KBqYn_ndAyOyzbdBZQ-170" edge="1">
          <mxGeometry x="-0.3333" y="10" width="80" relative="1" as="geometry">
            <mxPoint x="153.26315789473682" y="96.44444444444444" as="sourcePoint" />
            <mxPoint x="153.26315789473682" y="146.96296296296296" as="targetPoint" />
            <mxPoint as="offset" />
          </mxGeometry>
        </mxCell>
        <mxCell id="0_KBqYn_ndAyOyzbdBZQ-158" value="" style="group" parent="74" vertex="1" connectable="0">
          <mxGeometry x="260.0426315789473" y="103.33333333333333" width="30" height="75.78" as="geometry" />
        </mxCell>
        <mxCell id="0_KBqYn_ndAyOyzbdBZQ-155" value="&lt;h4&gt;&lt;font face=&quot;Times New Roman&quot; style=&quot;font-size: 7px;&quot;&gt;WRITE&lt;/font&gt;&lt;/h4&gt;" style="rounded=1;whiteSpace=wrap;html=1;align=center;spacingBottom=4;labelBackgroundColor=none;fillColor=#1ba1e2;fontColor=#ffffff;strokeColor=#006EAF;" parent="0_KBqYn_ndAyOyzbdBZQ-158" vertex="1">
          <mxGeometry y="25.260000000000005" width="30" height="8.42" as="geometry" />
        </mxCell>
        <mxCell id="0_KBqYn_ndAyOyzbdBZQ-154" value="" style="verticalAlign=middle;endArrow=block;curved=0;rounded=0;fillColor=#1ba1e2;strokeColor=#006EAF;strokeWidth=3;flowAnimation=1;fontColor=#FFFFFF;labelBackgroundColor=#3333FF;spacingRight=0;spacingBottom=0;spacingLeft=21;fontFamily=Times New Roman;labelBorderColor=none;labelPosition=center;verticalLabelPosition=middle;align=center;textShadow=0;html=1;dashed=1;startArrow=none;startFill=0;dashPattern=1 1;shadow=0;entryX=0.172;entryY=0.051;entryDx=0;entryDy=0;entryPerimeter=0;" parent="74" source="0_KBqYn_ndAyOyzbdBZQ-155" target="75" edge="1">
          <mxGeometry x="-0.3333" y="10" width="80" relative="1" as="geometry">
            <mxPoint x="294.73684210526307" y="114.81481481481482" as="sourcePoint" />
            <mxPoint x="291.0526315789473" y="165.33333333333337" as="targetPoint" />
            <mxPoint as="offset" />
          </mxGeometry>
        </mxCell>
        <mxCell id="0_KBqYn_ndAyOyzbdBZQ-156" value="" style="verticalAlign=middle;endArrow=none;curved=0;rounded=0;fillColor=#1ba1e2;strokeColor=#006EAF;strokeWidth=3;flowAnimation=1;fontColor=#FFFFFF;labelBackgroundColor=#3333FF;spacingRight=0;spacingBottom=0;spacingLeft=21;fontFamily=Times New Roman;labelBorderColor=none;labelPosition=center;verticalLabelPosition=middle;align=center;textShadow=0;html=1;dashed=1;startArrow=oval;startFill=0;dashPattern=1 1;shadow=0;exitX=1;exitY=0.5;exitDx=0;exitDy=0;exitPerimeter=0;" parent="74" source="0_KBqYn_ndAyOyzbdBZQ-100" target="0_KBqYn_ndAyOyzbdBZQ-155" edge="1">
          <mxGeometry x="-0.3333" y="10" width="80" relative="1" as="geometry">
            <mxPoint x="291.0526315789473" y="89.55555555555556" as="sourcePoint" />
            <mxPoint x="291.0526315789473" y="140.07407407407408" as="targetPoint" />
            <mxPoint as="offset" />
          </mxGeometry>
        </mxCell>
        <mxCell id="211" value="" style="group;fontFamily=Times New Roman;movable=1;resizable=1;rotatable=1;deletable=1;editable=1;locked=0;connectable=1;labelBackgroundColor=#15E7FF;rounded=1;glass=0;shadow=0;fillColor=#fad7ac;strokeColor=#b46504;fillStyle=auto;" parent="dl0MnxyBd_Y3A5cLGqDN-256" vertex="1" connectable="0">
          <mxGeometry x="580" y="220" width="420" height="310" as="geometry" />
        </mxCell>
        <mxCell id="212" value="" style="group;" parent="211" vertex="1" connectable="0">
          <mxGeometry x="280" y="166.10711111111115" width="94.93473684210527" height="86.1111111111111" as="geometry" />
        </mxCell>
        <mxCell id="213" value="" style="group;" parent="212" vertex="1" connectable="0">
          <mxGeometry width="94.93473684210527" height="86.1111111111111" as="geometry" />
        </mxCell>
        <mxCell id="214" value="" style="shape=cylinder3;whiteSpace=wrap;html=1;boundedLbl=1;backgroundOutline=1;size=15;fontFamily=Times New Roman;fillColor=#60a917;fontColor=#ffffff;strokeColor=#2D7600;" parent="213" vertex="1">
          <mxGeometry width="94.93473684210527" height="86.1111111111111" as="geometry" />
        </mxCell>
        <mxCell id="215" value="&lt;pre&gt;&lt;font face=&quot;Times New Roman&quot; style=&quot;font-size: 10px; color: light-dark(rgb(255, 255, 255), rgb(255, 255, 255));&quot;&gt;&lt;b&gt;Replica Secondary&lt;/b&gt;&lt;/font&gt;&lt;/pre&gt;" style="text;strokeColor=none;align=center;fillColor=none;html=1;verticalAlign=middle;whiteSpace=wrap;rounded=0;fontFamily=Times New Roman;" parent="213" vertex="1">
          <mxGeometry x="15.452631578947148" y="25.892888888888848" width="68.03263157894736" height="42.318444444444445" as="geometry" />
        </mxCell>
        <mxCell id="216" value="" style="group;" parent="211" vertex="1" connectable="0">
          <mxGeometry x="44.21052631578947" y="164.10888888888888" width="94.93473684210527" height="86.1111111111111" as="geometry" />
        </mxCell>
        <mxCell id="217" value="" style="shape=cylinder3;whiteSpace=wrap;html=1;boundedLbl=1;backgroundOutline=1;size=15;fontFamily=Times New Roman;fillColor=#60a917;strokeColor=#2D7600;fontColor=#ffffff;" parent="216" vertex="1">
          <mxGeometry width="94.93473684210527" height="86.1111111111111" as="geometry" />
        </mxCell>
        <mxCell id="218" value="&lt;pre&gt;&lt;font face=&quot;Times New Roman&quot; style=&quot;font-size: 10px; color: light-dark(rgb(255, 255, 255), rgb(255, 255, 255));&quot;&gt;&lt;b&gt;Replica Secondary&lt;/b&gt;&lt;/font&gt;&lt;/pre&gt;" style="text;strokeColor=none;align=center;fillColor=none;html=1;verticalAlign=middle;whiteSpace=wrap;rounded=0;fontFamily=Times New Roman;" parent="216" vertex="1">
          <mxGeometry x="13.882105263157875" y="28.11111111111111" width="68.03263157894736" height="42.318444444444445" as="geometry" />
        </mxCell>
        <mxCell id="219" value="" style="group" parent="211" vertex="1" connectable="0">
          <mxGeometry x="162.10526315789474" y="62" width="94.93473684210527" height="86.1111111111111" as="geometry" />
        </mxCell>
        <mxCell id="220" value="" style="shape=cylinder3;whiteSpace=wrap;html=1;boundedLbl=1;backgroundOutline=1;size=15;fontFamily=Times New Roman;fillColor=#60a917;fontColor=#ffffff;strokeColor=#2D7600;" parent="219" vertex="1">
          <mxGeometry width="94.93473684210527" height="86.1111111111111" as="geometry" />
        </mxCell>
        <mxCell id="221" value="&lt;pre&gt;&lt;font face=&quot;Times New Roman&quot; style=&quot;font-size: 10px; color: light-dark(rgb(255, 255, 255), rgb(255, 255, 255));&quot;&gt;&lt;b&gt;Replica Primary&lt;/b&gt;&lt;/font&gt;&lt;/pre&gt;" style="text;strokeColor=none;align=center;fillColor=none;html=1;verticalAlign=middle;whiteSpace=wrap;rounded=0;fontFamily=Times New Roman;fontSize=12;fontColor=default;" parent="219" vertex="1">
          <mxGeometry x="13.882105263157875" y="24.11111111111111" width="68.03263157894736" height="42.318444444444445" as="geometry" />
        </mxCell>
        <mxCell id="222" value="&lt;h1&gt;&lt;font style=&quot;color: light-dark(rgb(255, 255, 255), rgb(255, 255, 255));&quot;&gt;Shard 2&lt;/font&gt;&lt;/h1&gt;" style="rounded=1;whiteSpace=wrap;html=1;fontFamily=Helvetica;strokeColor=#006EAF;align=center;verticalAlign=middle;fontSize=12;fontColor=#ffffff;fillColor=#1ba1e2;" parent="211" vertex="1">
          <mxGeometry x="132.6315789473684" y="6.888888888888888" width="140.42736842105265" height="27.555555555555554" as="geometry" />
        </mxCell>
        <mxCell id="223" value="" style="group" parent="211" vertex="1" connectable="0">
          <mxGeometry x="125" y="107.33" width="33.74" height="75.78" as="geometry" />
        </mxCell>
        <mxCell id="224" value="" style="group" parent="223" vertex="1" connectable="0">
          <mxGeometry width="33.74" height="75.78" as="geometry" />
        </mxCell>
        <mxCell id="225" value="&lt;h4&gt;&lt;font face=&quot;Times New Roman&quot; style=&quot;font-size: 7px;&quot;&gt;WRITE&lt;/font&gt;&lt;/h4&gt;" style="rounded=1;whiteSpace=wrap;html=1;align=center;spacingBottom=4;labelBackgroundColor=none;fillColor=#1ba1e2;fontColor=#ffffff;strokeColor=#006EAF;" parent="224" vertex="1">
          <mxGeometry y="25.260000000000005" width="33.74" height="8.42" as="geometry" />
        </mxCell>
        <mxCell id="226" value="" style="verticalAlign=middle;endArrow=block;curved=0;rounded=0;fillColor=#1ba1e2;strokeColor=#006EAF;strokeWidth=3;flowAnimation=1;fontColor=#FFFFFF;labelBackgroundColor=#3333FF;spacingRight=0;spacingBottom=0;spacingLeft=21;fontFamily=Times New Roman;labelBorderColor=none;labelPosition=center;verticalLabelPosition=middle;align=center;textShadow=0;html=1;dashed=1;startArrow=none;startFill=0;dashPattern=1 1;shadow=0;entryX=0.783;entryY=0.016;entryDx=0;entryDy=0;entryPerimeter=0;" parent="211" source="225" target="217" edge="1">
          <mxGeometry x="-0.3333" y="10" width="80" relative="1" as="geometry">
            <mxPoint x="164.3157894736842" y="135.4814814814815" as="sourcePoint" />
            <mxPoint x="160.6315789473684" y="186.00000000000009" as="targetPoint" />
            <mxPoint as="offset" />
          </mxGeometry>
        </mxCell>
        <mxCell id="227" value="" style="verticalAlign=middle;endArrow=none;curved=0;rounded=0;fillColor=#1ba1e2;strokeColor=#006EAF;strokeWidth=3;flowAnimation=1;fontColor=#FFFFFF;labelBackgroundColor=#3333FF;spacingRight=0;spacingBottom=0;spacingLeft=21;fontFamily=Times New Roman;labelBorderColor=none;labelPosition=center;verticalLabelPosition=middle;align=center;textShadow=0;html=1;dashed=1;startArrow=oval;startFill=0;dashPattern=1 1;shadow=0;exitX=0.013;exitY=0.572;exitDx=0;exitDy=0;exitPerimeter=0;" parent="211" source="220" target="225" edge="1">
          <mxGeometry x="-0.3333" y="10" width="80" relative="1" as="geometry">
            <mxPoint x="153.26315789473682" y="96.44444444444444" as="sourcePoint" />
            <mxPoint x="153.26315789473682" y="146.96296296296296" as="targetPoint" />
            <mxPoint as="offset" />
          </mxGeometry>
        </mxCell>
        <mxCell id="228" value="" style="group" parent="211" vertex="1" connectable="0">
          <mxGeometry x="260.0426315789473" y="103.33333333333333" width="30" height="75.78" as="geometry" />
        </mxCell>
        <mxCell id="229" value="&lt;h4&gt;&lt;font face=&quot;Times New Roman&quot; style=&quot;font-size: 7px;&quot;&gt;WRITE&lt;/font&gt;&lt;/h4&gt;" style="rounded=1;whiteSpace=wrap;html=1;align=center;spacingBottom=4;labelBackgroundColor=none;fillColor=#1ba1e2;fontColor=#ffffff;strokeColor=#006EAF;" parent="228" vertex="1">
          <mxGeometry y="25.260000000000005" width="30" height="8.42" as="geometry" />
        </mxCell>
        <mxCell id="230" value="" style="verticalAlign=middle;endArrow=block;curved=0;rounded=0;fillColor=#1ba1e2;strokeColor=#006EAF;strokeWidth=3;flowAnimation=1;fontColor=#FFFFFF;labelBackgroundColor=#3333FF;spacingRight=0;spacingBottom=0;spacingLeft=21;fontFamily=Times New Roman;labelBorderColor=none;labelPosition=center;verticalLabelPosition=middle;align=center;textShadow=0;html=1;dashed=1;startArrow=none;startFill=0;dashPattern=1 1;shadow=0;entryX=0.172;entryY=0.051;entryDx=0;entryDy=0;entryPerimeter=0;" parent="211" source="229" target="214" edge="1">
          <mxGeometry x="-0.3333" y="10" width="80" relative="1" as="geometry">
            <mxPoint x="294.73684210526307" y="114.81481481481482" as="sourcePoint" />
            <mxPoint x="291.0526315789473" y="165.33333333333337" as="targetPoint" />
            <mxPoint as="offset" />
          </mxGeometry>
        </mxCell>
        <mxCell id="231" value="" style="verticalAlign=middle;endArrow=none;curved=0;rounded=0;fillColor=#1ba1e2;strokeColor=#006EAF;strokeWidth=3;flowAnimation=1;fontColor=#FFFFFF;labelBackgroundColor=#3333FF;spacingRight=0;spacingBottom=0;spacingLeft=21;fontFamily=Times New Roman;labelBorderColor=none;labelPosition=center;verticalLabelPosition=middle;align=center;textShadow=0;html=1;dashed=1;startArrow=oval;startFill=0;dashPattern=1 1;shadow=0;exitX=1;exitY=0.5;exitDx=0;exitDy=0;exitPerimeter=0;" parent="211" source="220" target="229" edge="1">
          <mxGeometry x="-0.3333" y="10" width="80" relative="1" as="geometry">
            <mxPoint x="291.0526315789473" y="89.55555555555556" as="sourcePoint" />
            <mxPoint x="291.0526315789473" y="140.07407407407408" as="targetPoint" />
            <mxPoint as="offset" />
          </mxGeometry>
        </mxCell>
        <mxCell id="232" value="" style="group;fontFamily=Times New Roman;movable=1;resizable=1;rotatable=1;deletable=1;editable=1;locked=0;connectable=1;labelBackgroundColor=#15E7FF;rounded=1;glass=0;shadow=0;fillColor=#fad7ac;strokeColor=#b46504;fillStyle=auto;" parent="dl0MnxyBd_Y3A5cLGqDN-256" vertex="1" connectable="0">
          <mxGeometry x="1060" y="220" width="420" height="310" as="geometry" />
        </mxCell>
        <mxCell id="233" value="" style="group;movable=1;resizable=1;rotatable=1;deletable=1;editable=1;locked=0;connectable=1;" parent="232" vertex="1" connectable="0">
          <mxGeometry x="280" y="166.10711111111115" width="94.93473684210527" height="86.1111111111111" as="geometry" />
        </mxCell>
        <mxCell id="234" value="" style="group;movable=1;resizable=1;rotatable=1;deletable=1;editable=1;locked=0;connectable=1;" parent="233" vertex="1" connectable="0">
          <mxGeometry width="94.93473684210527" height="86.1111111111111" as="geometry" />
        </mxCell>
        <mxCell id="235" value="" style="shape=cylinder3;whiteSpace=wrap;html=1;boundedLbl=1;backgroundOutline=1;size=15;fontFamily=Times New Roman;fillColor=#60a917;fontColor=#ffffff;strokeColor=#2D7600;movable=1;resizable=1;rotatable=1;deletable=1;editable=1;locked=0;connectable=1;" parent="234" vertex="1">
          <mxGeometry width="94.93473684210527" height="86.1111111111111" as="geometry" />
        </mxCell>
        <mxCell id="236" value="&lt;pre&gt;&lt;font face=&quot;Times New Roman&quot; style=&quot;font-size: 10px; color: light-dark(rgb(255, 255, 255), rgb(255, 255, 255));&quot;&gt;&lt;b&gt;Replica Secondary&lt;/b&gt;&lt;/font&gt;&lt;/pre&gt;" style="text;strokeColor=none;align=center;fillColor=none;html=1;verticalAlign=middle;whiteSpace=wrap;rounded=0;fontFamily=Times New Roman;movable=1;resizable=1;rotatable=1;deletable=1;editable=1;locked=0;connectable=1;" parent="234" vertex="1">
          <mxGeometry x="15.452631578947148" y="25.892888888888848" width="68.03263157894736" height="42.318444444444445" as="geometry" />
        </mxCell>
        <mxCell id="237" value="" style="group;movable=1;resizable=1;rotatable=1;deletable=1;editable=1;locked=0;connectable=1;" parent="232" vertex="1" connectable="0">
          <mxGeometry x="44.21052631578947" y="164.10888888888888" width="94.93473684210527" height="86.1111111111111" as="geometry" />
        </mxCell>
        <mxCell id="238" value="" style="shape=cylinder3;whiteSpace=wrap;html=1;boundedLbl=1;backgroundOutline=1;size=15;fontFamily=Times New Roman;fillColor=#60a917;strokeColor=#2D7600;fontColor=#ffffff;movable=1;resizable=1;rotatable=1;deletable=1;editable=1;locked=0;connectable=1;" parent="237" vertex="1">
          <mxGeometry width="94.93473684210527" height="86.1111111111111" as="geometry" />
        </mxCell>
        <mxCell id="239" value="&lt;pre&gt;&lt;font face=&quot;Times New Roman&quot; style=&quot;font-size: 10px; color: light-dark(rgb(255, 255, 255), rgb(255, 255, 255));&quot;&gt;&lt;b&gt;Replica Secondary&lt;/b&gt;&lt;/font&gt;&lt;/pre&gt;" style="text;strokeColor=none;align=center;fillColor=none;html=1;verticalAlign=middle;whiteSpace=wrap;rounded=0;fontFamily=Times New Roman;movable=1;resizable=1;rotatable=1;deletable=1;editable=1;locked=0;connectable=1;" parent="237" vertex="1">
          <mxGeometry x="13.882105263157875" y="28.11111111111111" width="68.03263157894736" height="42.318444444444445" as="geometry" />
        </mxCell>
        <mxCell id="240" value="" style="group;movable=1;resizable=1;rotatable=1;deletable=1;editable=1;locked=0;connectable=1;" parent="232" vertex="1" connectable="0">
          <mxGeometry x="162.10526315789474" y="62" width="94.93473684210527" height="86.1111111111111" as="geometry" />
        </mxCell>
        <mxCell id="241" value="" style="shape=cylinder3;whiteSpace=wrap;html=1;boundedLbl=1;backgroundOutline=1;size=15;fontFamily=Times New Roman;fillColor=#60a917;fontColor=#ffffff;strokeColor=#2D7600;movable=1;resizable=1;rotatable=1;deletable=1;editable=1;locked=0;connectable=1;" parent="240" vertex="1">
          <mxGeometry width="94.93473684210527" height="86.1111111111111" as="geometry" />
        </mxCell>
        <mxCell id="242" value="&lt;pre&gt;&lt;font face=&quot;Times New Roman&quot; style=&quot;font-size: 10px; color: light-dark(rgb(255, 255, 255), rgb(255, 255, 255));&quot;&gt;&lt;b&gt;Replica Primary&lt;/b&gt;&lt;/font&gt;&lt;/pre&gt;" style="text;strokeColor=none;align=center;fillColor=none;html=1;verticalAlign=middle;whiteSpace=wrap;rounded=0;fontFamily=Times New Roman;fontSize=12;fontColor=default;movable=1;resizable=1;rotatable=1;deletable=1;editable=1;locked=0;connectable=1;" parent="240" vertex="1">
          <mxGeometry x="13.882105263157875" y="24.11111111111111" width="68.03263157894736" height="42.318444444444445" as="geometry" />
        </mxCell>
        <mxCell id="243" value="&lt;h1&gt;&lt;font style=&quot;color: light-dark(rgb(255, 255, 255), rgb(255, 255, 255));&quot;&gt;Shard 3&lt;/font&gt;&lt;/h1&gt;" style="rounded=1;whiteSpace=wrap;html=1;fontFamily=Helvetica;strokeColor=#006EAF;align=center;verticalAlign=middle;fontSize=12;fontColor=#ffffff;fillColor=#1ba1e2;movable=1;resizable=1;rotatable=1;deletable=1;editable=1;locked=0;connectable=1;" parent="232" vertex="1">
          <mxGeometry x="132.6315789473684" y="6.888888888888888" width="140.42736842105265" height="27.555555555555554" as="geometry" />
        </mxCell>
        <mxCell id="244" value="" style="group;movable=1;resizable=1;rotatable=1;deletable=1;editable=1;locked=0;connectable=1;" parent="232" vertex="1" connectable="0">
          <mxGeometry x="125" y="107.33" width="33.74" height="75.78" as="geometry" />
        </mxCell>
        <mxCell id="245" value="" style="group;movable=1;resizable=1;rotatable=1;deletable=1;editable=1;locked=0;connectable=1;" parent="244" vertex="1" connectable="0">
          <mxGeometry width="33.74" height="75.78" as="geometry" />
        </mxCell>
        <mxCell id="246" value="&lt;h4&gt;&lt;font face=&quot;Times New Roman&quot; style=&quot;font-size: 7px;&quot;&gt;WRITE&lt;/font&gt;&lt;/h4&gt;" style="rounded=1;whiteSpace=wrap;html=1;align=center;spacingBottom=4;labelBackgroundColor=none;fillColor=#1ba1e2;fontColor=#ffffff;strokeColor=#006EAF;movable=1;resizable=1;rotatable=1;deletable=1;editable=1;locked=0;connectable=1;" parent="245" vertex="1">
          <mxGeometry y="25.260000000000005" width="33.74" height="8.42" as="geometry" />
        </mxCell>
        <mxCell id="247" value="" style="verticalAlign=middle;endArrow=block;curved=0;rounded=0;fillColor=#1ba1e2;strokeColor=#006EAF;strokeWidth=3;flowAnimation=1;fontColor=#FFFFFF;labelBackgroundColor=#3333FF;spacingRight=0;spacingBottom=0;spacingLeft=21;fontFamily=Times New Roman;labelBorderColor=none;labelPosition=center;verticalLabelPosition=middle;align=center;textShadow=0;html=1;dashed=1;startArrow=none;startFill=0;dashPattern=1 1;shadow=0;entryX=0.783;entryY=0.016;entryDx=0;entryDy=0;entryPerimeter=0;movable=1;resizable=1;rotatable=1;deletable=1;editable=1;locked=0;connectable=1;" parent="232" source="246" target="238" edge="1">
          <mxGeometry x="-0.3333" y="10" width="80" relative="1" as="geometry">
            <mxPoint x="164.3157894736842" y="135.4814814814815" as="sourcePoint" />
            <mxPoint x="160.6315789473684" y="186.00000000000009" as="targetPoint" />
            <mxPoint as="offset" />
          </mxGeometry>
        </mxCell>
        <mxCell id="248" value="" style="verticalAlign=middle;endArrow=none;curved=0;rounded=0;fillColor=#1ba1e2;strokeColor=#006EAF;strokeWidth=3;flowAnimation=1;fontColor=#FFFFFF;labelBackgroundColor=#3333FF;spacingRight=0;spacingBottom=0;spacingLeft=21;fontFamily=Times New Roman;labelBorderColor=none;labelPosition=center;verticalLabelPosition=middle;align=center;textShadow=0;html=1;dashed=1;startArrow=oval;startFill=0;dashPattern=1 1;shadow=0;exitX=0.013;exitY=0.572;exitDx=0;exitDy=0;exitPerimeter=0;movable=1;resizable=1;rotatable=1;deletable=1;editable=1;locked=0;connectable=1;" parent="232" source="241" target="246" edge="1">
          <mxGeometry x="-0.3333" y="10" width="80" relative="1" as="geometry">
            <mxPoint x="153.26315789473682" y="96.44444444444444" as="sourcePoint" />
            <mxPoint x="153.26315789473682" y="146.96296296296296" as="targetPoint" />
            <mxPoint as="offset" />
          </mxGeometry>
        </mxCell>
        <mxCell id="249" value="" style="group;movable=1;resizable=1;rotatable=1;deletable=1;editable=1;locked=0;connectable=1;" parent="232" vertex="1" connectable="0">
          <mxGeometry x="260.0426315789473" y="103.33333333333333" width="30" height="75.78" as="geometry" />
        </mxCell>
        <mxCell id="250" value="&lt;h4&gt;&lt;font face=&quot;Times New Roman&quot; style=&quot;font-size: 7px;&quot;&gt;WRITE&lt;/font&gt;&lt;/h4&gt;" style="rounded=1;whiteSpace=wrap;html=1;align=center;spacingBottom=4;labelBackgroundColor=none;fillColor=#1ba1e2;fontColor=#ffffff;strokeColor=#006EAF;movable=1;resizable=1;rotatable=1;deletable=1;editable=1;locked=0;connectable=1;" parent="249" vertex="1">
          <mxGeometry y="25.260000000000005" width="30" height="8.42" as="geometry" />
        </mxCell>
        <mxCell id="251" value="" style="verticalAlign=middle;endArrow=block;curved=0;rounded=0;fillColor=#1ba1e2;strokeColor=#006EAF;strokeWidth=3;flowAnimation=1;fontColor=#FFFFFF;labelBackgroundColor=#3333FF;spacingRight=0;spacingBottom=0;spacingLeft=21;fontFamily=Times New Roman;labelBorderColor=none;labelPosition=center;verticalLabelPosition=middle;align=center;textShadow=0;html=1;dashed=1;startArrow=none;startFill=0;dashPattern=1 1;shadow=0;entryX=0.172;entryY=0.051;entryDx=0;entryDy=0;entryPerimeter=0;movable=1;resizable=1;rotatable=1;deletable=1;editable=1;locked=0;connectable=1;" parent="232" source="250" target="235" edge="1">
          <mxGeometry x="-0.3333" y="10" width="80" relative="1" as="geometry">
            <mxPoint x="294.73684210526307" y="114.81481481481482" as="sourcePoint" />
            <mxPoint x="291.0526315789473" y="165.33333333333337" as="targetPoint" />
            <mxPoint as="offset" />
          </mxGeometry>
        </mxCell>
        <mxCell id="252" value="" style="verticalAlign=middle;endArrow=none;curved=0;rounded=0;fillColor=#1ba1e2;strokeColor=#006EAF;strokeWidth=3;flowAnimation=1;fontColor=#FFFFFF;labelBackgroundColor=#3333FF;spacingRight=0;spacingBottom=0;spacingLeft=21;fontFamily=Times New Roman;labelBorderColor=none;labelPosition=center;verticalLabelPosition=middle;align=center;textShadow=0;html=1;dashed=1;startArrow=oval;startFill=0;dashPattern=1 1;shadow=0;exitX=1;exitY=0.5;exitDx=0;exitDy=0;exitPerimeter=0;movable=1;resizable=1;rotatable=1;deletable=1;editable=1;locked=0;connectable=1;" parent="232" source="241" target="250" edge="1">
          <mxGeometry x="-0.3333" y="10" width="80" relative="1" as="geometry">
            <mxPoint x="291.0526315789473" y="89.55555555555556" as="sourcePoint" />
            <mxPoint x="291.0526315789473" y="140.07407407407408" as="targetPoint" />
            <mxPoint as="offset" />
          </mxGeometry>
        </mxCell>
      </root>
    </mxGraphModel>
  </diagram>
</mxfile>
